<svg width="116" height="117" viewBox="0 0 116 117" fill="none" xmlns="http://www.w3.org/2000/svg">
<path d="M115.648 58.0074C115.648 89.8571 89.8442 115.665 58 115.665C26.1557 115.665 0.351837 89.8375 0.351837 58.0074C0.351837 26.1578 26.1557 0.34962 58 0.34962C89.8442 0.330069 115.648 26.1578 115.648 58.0074Z" fill="white"/>
<path d="M99.0125 99.0291C88.0654 109.978 73.5018 116.019 58 116.019C42.4981 116.019 27.9346 109.998 16.9875 99.0291C6.0209 88.0802 0 73.4946 0 58.0097C0 42.5053 6.04044 27.9393 16.9875 16.9904C27.9346 6.04146 42.4981 0 58 0C73.5018 0 88.0654 6.04146 99.0125 16.9904C109.979 27.9393 116 42.5248 116 58.0097C116 73.4946 109.979 88.0606 99.0125 99.0291ZM97.429 18.5545C86.8925 8.01618 72.8958 2.22889 58 2.22889C43.1041 2.22889 29.1075 8.03573 18.5709 18.5545C8.03438 29.0929 2.22851 43.0918 2.22851 58.0097C2.22851 72.9081 8.03438 86.9071 18.5709 97.4454C29.1075 107.984 43.1041 113.791 58 113.791C72.8958 113.791 86.8925 107.984 97.429 97.4454C107.966 86.9071 113.752 72.9081 113.752 58.0097C113.771 43.0918 107.966 29.0929 97.429 18.5545ZM7.99528 73.6511C6.19683 70.5619 5.21941 63.1127 5.21941 57.1886C5.21941 28.0371 28.8534 4.88791 58 4.88791C87.1466 4.88791 110.781 28.1935 110.781 57.345C110.781 63.2691 108.005 73.6511 108.005 73.6511H7.99528ZM32.118 23.9117H29.3421C29.3225 23.8139 29.2834 23.7357 29.2639 23.6379C29.0098 22.8754 28.7556 22.0934 28.5015 21.3113C28.4624 21.194 28.4038 21.0962 28.306 21.0571C28.1105 20.9594 27.8955 21.0571 27.8173 21.2722C27.6414 21.8196 27.4655 22.3671 27.2895 22.9341C27.1918 23.2469 27.0745 23.5793 26.9767 23.8921H24.2595C24.2009 23.8921 24.1618 23.8921 24.1031 23.9117C23.9663 23.9508 23.8881 24.0485 23.849 24.1854C23.8295 24.3418 23.8685 24.4591 24.0054 24.5569C24.7287 25.0848 25.452 25.6127 26.1753 26.121C26.2339 26.1601 26.2339 26.1992 26.2144 26.2579C26.0384 26.7858 25.8625 27.3137 25.6865 27.8611L25.3933 28.7996C25.3151 29.0146 25.4324 29.2297 25.6474 29.2688C25.7647 29.2884 25.882 29.2493 25.9798 29.1711C26.6835 28.6627 27.3873 28.1544 28.0715 27.6265C28.1496 27.5678 28.1887 27.5678 28.2474 27.6265C28.482 27.8024 28.7165 27.9784 28.9707 28.1544C29.4398 28.4867 29.909 28.8387 30.3977 29.1906C30.6323 29.3666 30.9451 29.2297 30.9646 28.956C30.9646 28.8973 30.9451 28.8191 30.9255 28.7409C30.6518 27.9198 30.3782 27.079 30.1045 26.2579C30.0849 26.1797 30.0849 26.1601 30.1436 26.1014C30.8669 25.5736 31.5902 25.0652 32.2939 24.5373C32.3525 24.4982 32.4112 24.4396 32.4307 24.3614C32.548 24.1658 32.3721 23.9117 32.118 23.9117ZM44.5116 17.8898H41.2861C41.247 17.7724 41.2079 17.6747 41.1884 17.5769C40.8952 16.6776 40.6019 15.7782 40.3087 14.8593C40.2696 14.7224 40.211 14.6246 40.0741 14.566C39.8396 14.4682 39.605 14.566 39.5072 14.8201C39.2922 15.4654 39.0967 16.1106 38.8817 16.7558C38.7644 17.1272 38.6471 17.4987 38.5298 17.8898H35.363C35.3043 17.8898 35.2457 17.8898 35.1871 17.9093C35.0307 17.9484 34.9329 18.0657 34.8938 18.2221C34.8547 18.3981 34.9329 18.5545 35.0698 18.6523C35.9103 19.2584 36.7509 19.884 37.5915 20.4901C37.6501 20.5292 37.6697 20.5683 37.6502 20.6465C37.4351 21.2722 37.2396 21.8978 37.0442 22.5039C36.9269 22.8754 36.8096 23.2274 36.6923 23.5988C36.6141 23.8726 36.7509 24.1072 36.9855 24.1463C37.1419 24.1854 37.2396 24.1267 37.3569 24.029C38.178 23.4229 38.999 22.8363 39.8005 22.2302C39.8787 22.1716 39.9373 22.1716 40.0155 22.2302C40.2892 22.4453 40.5629 22.6408 40.8561 22.8363C41.4034 23.2469 41.9508 23.6379 42.5177 24.0485C42.7914 24.244 43.1432 24.0876 43.1823 23.7748C43.1823 23.6966 43.1628 23.6184 43.1432 23.5402C42.8305 22.5822 42.5177 21.6046 42.1854 20.6465C42.1658 20.5683 42.1658 20.5292 42.244 20.4706C43.0846 19.8645 43.9252 19.2584 44.7462 18.6327C44.8244 18.5741 44.883 18.5154 44.9026 18.4372C45.0003 18.2026 44.8048 17.8898 44.5116 17.8898ZM64.5487 12.8259H59.9548C59.8962 12.6695 59.8571 12.5326 59.818 12.3957C59.3879 11.1053 58.9774 9.83448 58.5669 8.54407C58.5083 8.34855 58.4105 8.21169 58.2346 8.11393C57.9218 7.95752 57.5504 8.11393 57.4526 8.46586C57.1594 9.38479 56.8662 10.3037 56.5534 11.2226L56.0452 12.8259H51.5295C51.4513 12.8259 51.3535 12.8259 51.2754 12.8454C51.0408 12.9041 50.9039 13.0801 50.8648 13.2951C50.8257 13.5493 50.9235 13.7448 51.119 13.9012C52.3114 14.781 53.5039 15.6413 54.6963 16.5211C54.7941 16.5993 54.8136 16.6385 54.7745 16.7558C54.4813 17.6356 54.1881 18.535 53.9144 19.4148C53.7385 19.9231 53.5625 20.451 53.4061 20.9594C53.2888 21.3308 53.4648 21.6632 53.8167 21.7414C54.0121 21.7805 54.1881 21.7023 54.3444 21.585C55.5173 20.7247 56.6707 19.884 57.8241 19.0238C57.9414 18.9455 58.0195 18.9455 58.1173 19.0238C58.5083 19.317 58.8992 19.6103 59.3097 19.9036C60.0917 20.4706 60.8736 21.0571 61.6751 21.6241C62.0661 21.8978 62.5743 21.6828 62.6134 21.2135C62.633 21.0962 62.5939 20.9789 62.5548 20.8616C62.1051 19.493 61.6555 18.1244 61.2059 16.7362C61.1668 16.6189 61.1864 16.5602 61.2841 16.5016C62.4766 15.6413 63.669 14.7615 64.8615 13.9012C64.9592 13.823 65.0569 13.7253 65.096 13.6275C65.272 13.256 64.9788 12.8259 64.5487 12.8259ZM80.5002 17.8898H77.2747C77.2356 17.7724 77.1965 17.6747 77.1769 17.5769C76.8837 16.6776 76.5905 15.7782 76.2973 14.8593C76.2582 14.7224 76.1995 14.6246 76.0627 14.566C75.8281 14.4682 75.5935 14.566 75.4958 14.8201C75.2807 15.4654 75.0853 16.1106 74.8702 16.7558C74.7529 17.1272 74.6357 17.4987 74.4988 17.8898H71.332C71.2733 17.8898 71.2147 17.8898 71.156 17.9093C70.9996 17.9484 70.9019 18.0657 70.8628 18.2221C70.8237 18.3981 70.9019 18.5545 71.0388 18.6523C71.8793 19.2584 72.7199 19.884 73.5605 20.4901C73.6191 20.5292 73.6387 20.5683 73.6191 20.6465C73.4237 21.2722 73.2086 21.8978 73.0131 22.5039C72.8958 22.8754 72.7786 23.2274 72.6613 23.5988C72.5831 23.8726 72.7199 24.1072 72.9545 24.1463C73.0913 24.1854 73.2086 24.1267 73.3259 24.029C74.1469 23.4229 74.968 22.8363 75.789 22.2302C75.8672 22.1716 75.9258 22.1716 76.004 22.2302C76.2777 22.4453 76.5709 22.6408 76.8446 22.8363C77.392 23.2469 77.9393 23.6379 78.5062 24.0485C78.7799 24.244 79.1318 24.0876 79.1513 23.7748C79.1513 23.6966 79.1318 23.6184 79.1122 23.5402C78.7995 22.5822 78.4867 21.6046 78.1739 20.6465C78.1544 20.5683 78.1544 20.5292 78.2326 20.4706C79.0731 19.8645 79.9137 19.2584 80.7347 18.6327C80.7934 18.5741 80.8716 18.5154 80.8911 18.4372C81.0084 18.2026 80.7934 17.8898 80.5002 17.8898ZM91.5645 23.9117H88.7887C88.7496 23.8139 88.73 23.7357 88.6909 23.6379C88.4368 22.8754 88.1827 22.0934 87.9481 21.3113C87.909 21.194 87.8699 21.0962 87.7526 21.0571C87.5571 20.9594 87.3421 21.0571 87.2834 21.2722C87.1075 21.8196 86.9316 22.3671 86.7361 22.9341C86.6383 23.2469 86.5211 23.5793 86.4233 23.8921H83.7061C83.6474 23.8921 83.5888 23.8921 83.5497 23.9117C83.4129 23.9508 83.3347 24.0485 83.2956 24.1854C83.276 24.3418 83.3151 24.4591 83.452 24.5569C84.1753 25.0848 84.8985 25.6127 85.6023 26.121C85.6609 26.1601 85.6805 26.1992 85.6414 26.2579C85.4654 26.7858 85.2895 27.3137 85.1136 27.8611L84.8204 28.7996C84.7422 29.0146 84.8594 29.2297 85.0745 29.2688C85.1918 29.2884 85.3091 29.2493 85.3873 29.1711C86.091 28.6627 86.7947 28.1544 87.4985 27.6265C87.5767 27.5678 87.6158 27.5678 87.6744 27.6265C87.909 27.8024 88.1436 27.9784 88.3977 28.1544C88.8669 28.4867 89.336 28.8387 89.8247 29.1906C90.0593 29.3666 90.3721 29.2297 90.3916 28.956C90.3916 28.8973 90.3721 28.8191 90.3525 28.7409C90.0789 27.9198 89.8052 27.079 89.5315 26.2579C89.512 26.1797 89.512 26.1601 89.5902 26.1014C90.3134 25.5736 91.0172 25.0652 91.7405 24.5373C91.7991 24.4982 91.8578 24.4396 91.8773 24.3614C91.9946 24.1658 91.8187 23.9117 91.5645 23.9117Z" fill="#E7C520"/>
<path d="M47.208 93.2597C47.208 93.8072 46.7584 94.2373 46.2306 94.2373C45.6832 94.2373 45.2531 93.7876 45.2531 93.2597V89.1734H40.4052V93.2597C40.4052 93.8072 39.9751 94.2373 39.4277 94.2373C38.8804 94.2373 38.4503 93.7876 38.4503 93.2597V83.5426C38.4503 82.9951 38.8804 82.565 39.4277 82.565C39.9751 82.565 40.4052 82.9951 40.4052 83.5426V87.3747H45.2531V83.5426C45.2531 82.9951 45.7028 82.565 46.2306 82.565C46.7779 82.565 47.208 82.9951 47.208 83.5426V93.2597ZM52.3883 86.182C55.2424 86.182 55.7702 88.3914 55.7702 89.5645C55.7702 90.1901 55.7702 90.9135 54.7341 90.9135H50.5508C50.5508 92.1258 51.4109 92.6927 52.5251 92.6927C53.268 92.6927 53.7958 92.4386 54.2063 92.1648C54.4018 92.0475 54.5386 91.9693 54.7537 91.9693C55.1837 91.9693 55.5551 92.3213 55.5551 92.771C55.5551 93.0447 55.4183 93.2597 55.2619 93.3966C54.9687 93.6703 54.0695 94.3351 52.5447 94.3351C50.1793 94.3351 48.7328 93.0642 48.7328 90.2292C48.7328 87.6484 50.1011 86.182 52.3883 86.182ZM50.6094 89.3885H53.9717C53.9717 88.5673 53.5026 87.7462 52.3883 87.7462C51.4109 87.7462 50.7071 88.2936 50.6094 89.3885ZM58.8002 87.1987V91.1482C58.8002 91.9302 59.0738 92.6732 60.3249 92.6732C61.5565 92.6732 61.8302 91.9302 61.8302 91.1482V87.1987C61.8302 86.6904 62.2407 86.2798 62.7489 86.2798C63.2572 86.2798 63.6677 86.6904 63.6677 87.1987V91.1482C63.6677 92.8101 63.0422 94.3351 60.3249 94.3351C57.5882 94.3351 56.9626 92.8101 56.9626 91.1482V87.1987C56.9626 86.6904 57.3731 86.2798 57.8814 86.2798C58.3896 86.2798 58.8002 86.6904 58.8002 87.1987ZM67.1082 87.2769C67.421 86.6122 68.2225 86.2016 68.9458 86.2016C69.4149 86.2016 69.8059 86.5926 69.8059 87.0619C69.8059 87.5311 69.4149 87.9221 68.9458 87.9221C67.7729 87.9221 67.1082 88.6651 67.1082 89.7991V93.3184C67.1082 93.8267 66.6977 94.2373 66.1894 94.2373C65.6812 94.2373 65.2707 93.8267 65.2707 93.3184V87.1792C65.2707 86.6708 65.6812 86.2602 66.1894 86.2602C66.6977 86.2602 67.1082 86.6708 67.1082 87.1792V87.2769ZM73.911 86.182C76.7651 86.182 77.2929 88.3914 77.2929 89.5645C77.2929 90.1901 77.2929 90.9135 76.2568 90.9135H72.0735C72.0735 92.1258 72.9336 92.6927 74.0479 92.6927C74.7907 92.6927 75.3185 92.4386 75.729 92.1648C75.9245 92.0475 76.0614 91.9693 76.2764 91.9693C76.726 91.9693 77.0779 92.3213 77.0779 92.771C77.0779 93.0447 76.941 93.2597 76.7846 93.3966C76.4914 93.6703 75.5922 94.3351 74.0479 94.3351C71.6825 94.3351 70.236 93.0642 70.236 90.2292C70.2555 87.6484 71.6043 86.182 73.911 86.182ZM72.1321 89.3885H75.4944C75.4944 88.5673 75.0253 87.7462 73.911 87.7462C72.9336 87.7462 72.2299 88.2936 72.1321 89.3885ZM83.5484 93.8854L81.0266 90.503L80.4793 90.9331V93.3771C80.4793 93.8854 80.0688 94.2569 79.5605 94.2569C79.0327 94.2569 78.6417 93.8854 78.6417 93.3771V82.9365C78.6417 82.4281 79.0327 82.0566 79.5605 82.0566C80.0688 82.0566 80.4793 82.4281 80.4793 82.9365V88.9193L83.5484 86.5144C83.7634 86.3385 83.9393 86.2994 84.1348 86.2994C84.6235 86.2994 85.0145 86.6904 85.0145 87.1792C85.0145 87.4333 84.8972 87.7071 84.6822 87.883L82.4537 89.584L84.9559 92.8492C85.0927 93.0251 85.1318 93.2206 85.1318 93.3966C85.1318 93.8854 84.7408 94.2764 84.2521 94.2764C83.9393 94.2569 83.7048 94.1005 83.5484 93.8854ZM87.5949 88.45C87.419 88.5673 87.2821 88.626 87.0866 88.626C86.6566 88.626 86.2851 88.2741 86.2851 87.8244C86.2851 87.6484 86.3633 87.4334 86.5002 87.2574C86.9693 86.7295 87.8295 86.1625 89.276 86.1625C91.3873 86.1625 92.6384 87.1987 92.6384 88.9975V93.3379C92.6384 93.8267 92.2278 94.2373 91.7391 94.2373C91.2504 94.2373 90.8399 93.8267 90.8399 93.3379C90.3707 94.0614 89.6279 94.3155 88.6114 94.3155C86.9498 94.3155 85.8551 93.2793 85.8551 91.7543C85.8551 90.1706 87.1257 89.369 88.5918 89.369H90.8204V89.0757C90.8204 88.3132 90.2535 87.8048 89.276 87.8048C88.5332 87.8048 88.0054 88.1372 87.5949 88.45ZM90.8204 91.285V90.8158H88.846C88.1031 90.8158 87.6926 91.1677 87.6926 91.7738C87.6926 92.419 88.1422 92.8101 89.1001 92.8101C89.9993 92.8101 90.8204 92.2235 90.8204 91.285Z" fill="#30A9D4"/>
<path d="M35.2068 93.4755L32.9392 91.2075C33.897 90.1322 34.4835 88.7245 34.4835 87.1994C34.4835 83.8756 31.7858 81.1775 28.4626 81.1775C25.1394 81.1775 22.4417 83.8756 22.4417 87.1994C22.4417 90.5232 25.1394 93.2214 28.4626 93.2214C29.4986 93.2214 30.437 92.9672 31.2971 92.498L33.7406 94.9419C34.1512 95.3525 34.7962 95.3525 35.2068 94.9419C35.6173 94.5313 35.6173 93.8666 35.2068 93.4755ZM24.1619 87.1799C24.1619 84.7946 26.0972 82.8589 28.4821 82.8589C29.3618 82.8589 30.1633 83.1131 30.8475 83.5628L28.3648 87.5514L27.3483 86.2023C27.1919 86.0068 26.9574 85.8895 26.7032 85.8895C26.5273 85.8895 26.3514 85.9481 26.2145 86.0459C25.8626 86.3196 25.7845 86.8279 26.0581 87.1799L27.7784 89.4674C27.9348 89.6629 28.1694 89.7803 28.4235 89.7803H28.4626C28.7363 89.7803 28.9708 89.6238 29.1077 89.4088L32.0399 84.7164C32.5286 85.4202 32.8219 86.2609 32.8219 87.1799C32.8219 89.5652 30.8866 91.5008 28.5017 91.5008C26.0972 91.5008 24.1619 89.5652 24.1619 87.1799Z" fill="#FF7A04"/>
<path d="M15.0719 66.2576C14.6027 66.2576 14.2117 65.8861 14.2117 65.3973C14.2117 65.2214 14.2704 65.0259 14.3681 64.889L19.8808 56.8728H15.3651C14.8959 56.8728 14.5245 56.5013 14.5245 56.0321C14.5245 55.5629 14.8959 55.1914 15.3651 55.1914H21.5815C22.0506 55.1914 22.422 55.5629 22.422 56.0321C22.422 56.1885 22.3829 56.3449 22.2657 56.5013L16.7726 64.5371H21.7769C22.2461 64.5371 22.6371 64.9085 22.6371 65.3973C22.6371 65.8666 22.2657 66.2576 21.7769 66.2576H15.0719ZM25.9994 63.3835L25.0024 65.7688C24.846 66.1208 24.5333 66.3945 24.1228 66.3945C23.6145 66.3945 23.1844 65.9643 23.1844 65.456C23.1844 65.3582 23.204 65.2214 23.2431 65.1041L27.1136 55.6606C27.2114 55.426 27.4655 55.0741 27.9933 55.0741C28.5211 55.0741 28.7557 55.426 28.873 55.6606L32.7436 65.1041C32.8022 65.2214 32.8022 65.3582 32.8022 65.456C32.8022 65.9643 32.3722 66.3945 31.8639 66.3945C31.4338 66.3945 31.1211 66.1208 30.9842 65.7688L29.9873 63.3835H25.9994ZM26.7227 53.6468L28.1106 51.8676C28.3452 51.5743 28.7753 51.5939 29.088 51.9262C29.4399 52.2782 29.4204 52.6692 29.1467 52.9038L27.5437 54.3898C27.27 54.6439 26.9964 54.5853 26.7813 54.3898C26.5468 54.1356 26.5467 53.8423 26.7227 53.6468ZM27.9933 58.1828L26.6445 61.6239H29.3422L27.9933 58.1828ZM35.9886 59.786L39.9374 55.3869C40.1329 55.1718 40.387 55.0741 40.6216 55.0741C41.1298 55.0741 41.5403 55.4846 41.5403 55.993C41.5403 56.2472 41.4426 56.4622 41.2862 56.6186L38.1976 59.962L41.8336 64.9085C41.9509 65.065 42.0095 65.2605 42.0095 65.456C42.0095 65.9643 41.5794 66.3945 41.0712 66.3945C40.6802 66.3945 40.4261 66.1599 40.3088 65.9839L36.9269 61.311L35.9886 62.2886V65.4364C35.9886 65.9643 35.5585 66.3945 35.0307 66.3945C34.5029 66.3945 34.0729 65.9643 34.0729 65.4364V56.0321C34.0729 55.5042 34.5029 55.0741 35.0307 55.0741C35.5585 55.0741 35.9886 55.5042 35.9886 56.0321V59.786ZM45.3718 63.3835L44.3749 65.7688C44.2185 66.1208 43.9057 66.3945 43.4952 66.3945C42.9869 66.3945 42.5569 65.9643 42.5569 65.456C42.5569 65.3582 42.5764 65.2214 42.6155 65.1041L46.4861 55.6606C46.5838 55.426 46.8379 55.0741 47.3658 55.0741C47.8936 55.0741 48.1281 55.426 48.2454 55.6606L52.116 65.1041C52.1747 65.2214 52.1747 65.3582 52.1747 65.456C52.1747 65.9643 51.7446 66.3945 51.2363 66.3945C50.8063 66.3945 50.4935 66.1208 50.3567 65.7688L49.3597 63.3835H45.3718ZM47.3658 58.1828L46.0169 61.6239H48.7146L47.3658 58.1828ZM53.5821 66.2576C53.113 66.2576 52.722 65.8861 52.722 65.3973C52.722 65.2214 52.7807 65.0259 52.8784 64.889L58.391 56.8728H53.8754C53.4062 56.8728 53.0348 56.5013 53.0348 56.0321C53.0348 55.5629 53.4062 55.1914 53.8754 55.1914H60.0917C60.5609 55.1914 60.9323 55.5629 60.9323 56.0321C60.9323 56.1885 60.8932 56.3449 60.7759 56.5013L55.2828 64.5371H60.2872C60.7564 64.5371 61.1474 64.9085 61.1474 65.3973C61.1474 65.8666 60.7759 66.2576 60.2872 66.2576H53.5821ZM70.687 55.993V65.4364C70.687 65.9448 70.2569 66.3749 69.7486 66.3749C69.4359 66.3749 69.1426 66.2185 68.9862 65.9643L64.1382 58.9648V65.4364C64.1382 65.9448 63.7082 66.3749 63.1999 66.3749C62.6917 66.3749 62.2616 65.9448 62.2616 65.4364V55.993C62.2616 55.4846 62.6917 55.0545 63.1999 55.0545C63.5323 55.0545 63.7864 55.2109 63.9623 55.4455L68.8299 62.4841V55.9734C68.8299 55.4651 69.2599 55.035 69.7682 55.035C70.2764 55.0545 70.687 55.4846 70.687 55.993ZM72.5636 53.6468L73.9515 51.8676C74.1861 51.5743 74.6162 51.5939 74.9289 51.9262C75.2808 52.2782 75.2613 52.6692 74.9876 52.9038L73.3846 54.3898C73.1109 54.6439 72.8373 54.5853 72.6222 54.3898C72.3876 54.1356 72.3877 53.8423 72.5636 53.6468ZM74.4793 65.4364C74.4793 65.9643 74.0493 66.3945 73.5215 66.3945C72.9937 66.3945 72.5636 65.9643 72.5636 65.4364V56.0321C72.5636 55.5042 72.9937 55.0741 73.5215 55.0741C74.0493 55.0741 74.4793 55.5042 74.4793 56.0321V65.4364ZM78.3695 59.786L82.3182 55.3869C82.5137 55.1718 82.7678 55.0741 83.0024 55.0741C83.5107 55.0741 83.9212 55.4846 83.9212 55.993C83.9212 56.2472 83.8234 56.4622 83.6671 56.6186L80.5784 59.962L84.2144 64.9085C84.3317 65.065 84.3904 65.2605 84.3904 65.456C84.3904 65.9643 83.9603 66.3945 83.452 66.3945C83.0611 66.3945 82.8069 66.1599 82.6896 65.9839L79.3078 61.311L78.3695 62.2886V65.4364C78.3695 65.9643 77.9394 66.3945 77.4116 66.3945C76.8838 66.3945 76.4537 65.9643 76.4537 65.4364V56.0321C76.4537 55.5042 76.8838 55.0741 77.4116 55.0741C77.9394 55.0741 78.3695 55.5042 78.3695 56.0321V59.786ZM89.9616 64.0483L87.3812 59.4732V65.456C87.3812 65.9643 86.9512 66.3945 86.4429 66.3945C85.9347 66.3945 85.5046 65.9643 85.5046 65.456V56.0125C85.5046 55.5042 85.9347 55.0741 86.4429 55.0741C86.8534 55.0741 87.1076 55.3087 87.2835 55.602L90.7631 61.8389L94.2427 55.602C94.3991 55.3087 94.6728 55.0741 95.0833 55.0741C95.5916 55.0741 96.0216 55.5042 96.0216 56.0125V65.456C96.0216 65.9643 95.5916 66.3945 95.0833 66.3945C94.575 66.3945 94.145 65.9643 94.145 65.456V59.4732L91.5646 64.0483C91.4082 64.3416 91.0954 64.5175 90.7631 64.5175C90.4308 64.5175 90.118 64.3416 89.9616 64.0483ZM99.8922 65.4364C99.8922 65.9643 99.4621 66.3945 98.9343 66.3945C98.4065 66.3945 97.9765 65.9643 97.9765 65.4364V56.0321C97.9765 55.5042 98.4065 55.0741 98.9343 55.0741C99.4621 55.0741 99.8922 55.5042 99.8922 56.0321V65.4364Z" fill="white"/>
<path d="M18.6499 43.7168C18.6499 39.1221 20.8784 36.8933 24.8076 36.8933C28.7369 36.8933 30.9654 39.1026 30.9654 43.7168C30.9654 48.2528 28.7369 50.5208 24.8076 50.5208C20.8784 50.5012 18.6499 48.2528 18.6499 43.7168ZM20.9762 43.7168C20.9762 46.9233 22.2468 48.4874 24.8076 48.4874C27.3685 48.4874 28.6391 46.9233 28.6391 43.7168C28.6391 40.4908 27.3685 38.9266 24.8076 38.9266C22.2273 38.9071 20.9762 40.4908 20.9762 43.7168ZM36.478 49.68L32.0601 38.5747C32.0014 38.4378 31.9819 38.3205 31.9819 38.1446C31.9819 37.5189 32.4901 37.0106 33.1157 37.0106C33.6826 37.0106 34.0345 37.3625 34.1517 37.6753L37.5336 46.63L40.9155 37.6753C41.0328 37.382 41.3846 37.0106 41.9515 37.0106C42.5771 37.0106 43.0854 37.5189 43.0854 38.1446C43.0854 38.3205 43.0658 38.4378 43.0072 38.5747L38.5892 49.68C38.4328 50.0711 38.1201 50.4035 37.5336 50.4035C36.9276 50.4035 36.6344 50.0711 36.478 49.68ZM46.8386 42.661H50.5137C51.0611 42.661 51.5107 43.1107 51.5107 43.6581C51.5107 44.2056 51.0611 44.6553 50.5137 44.6553H46.8386V48.2137H51.9799C52.5468 48.2137 52.9964 48.6634 52.9964 49.2304C52.9964 49.7974 52.5468 50.247 51.9799 50.247H45.7048C45.0793 50.247 44.571 49.7387 44.571 49.113V38.301C44.571 37.6753 45.0793 37.167 45.7048 37.167H51.7648C52.3317 37.167 52.7813 37.6167 52.7813 38.1837C52.7813 38.7507 52.3317 39.2004 51.7648 39.2004H46.8386V42.661ZM57.0038 45.2223V49.2695C57.0038 49.8951 56.4955 50.4035 55.87 50.4035C55.2444 50.4035 54.7362 49.8951 54.7362 49.2695V38.301C54.7362 37.6753 55.2444 37.167 55.87 37.167H59.5842C62.2037 37.167 63.6893 39.0244 63.6893 41.2337C63.6893 43.0716 62.5555 44.8703 60.6984 45.105L63.572 48.6047C63.748 48.8393 63.8066 49.0739 63.8066 49.289C63.8066 49.9147 63.2984 50.423 62.6728 50.423C62.3405 50.423 61.9886 50.2666 61.7931 50.0124L58.2549 45.2614H57.0038V45.2223ZM57.0038 39.1808V43.2475H59.6233C60.8353 43.2475 61.3435 42.2504 61.3435 41.2337C61.3435 40.1779 60.8157 39.2004 59.5646 39.2004H57.0038V39.1808ZM67.8727 42.661H71.5478C72.0951 42.661 72.5447 43.1107 72.5447 43.6581C72.5447 44.2056 72.0951 44.6553 71.5478 44.6553H67.8727V48.2137H73.0139C73.5808 48.2137 74.0304 48.6634 74.0304 49.2304C74.0304 49.7974 73.5808 50.247 73.0139 50.247H66.7389C66.1133 50.247 65.6051 49.7387 65.6051 49.113V38.301C65.6051 37.6753 66.1133 37.167 66.7389 37.167H72.7989C73.3658 37.167 73.8154 37.6167 73.8154 38.1837C73.8154 38.7507 73.3658 39.2004 72.7989 39.2004H67.8727V42.661ZM85.6421 38.125V49.289C85.6421 49.8951 85.1339 50.4035 84.5279 50.4035C84.1565 50.4035 83.8046 50.2079 83.6091 49.9147L77.8814 41.6443V49.289C77.8814 49.8951 77.3732 50.4035 76.7672 50.4035C76.1612 50.4035 75.6529 49.8951 75.6529 49.289V38.125C75.6529 37.5189 76.1612 37.0106 76.7672 37.0106C77.1581 37.0106 77.4709 37.1865 77.6664 37.4798L83.4136 45.8088V38.125C83.4136 37.5189 83.9219 37.0106 84.5279 37.0106C85.1339 37.0106 85.6421 37.5189 85.6421 38.125ZM90.1383 42.661H93.8133C94.3607 42.661 94.8103 43.1107 94.8103 43.6581C94.8103 44.2056 94.3607 44.6553 93.8133 44.6553H90.1383V48.2137H95.2795C95.8464 48.2137 96.296 48.6634 96.296 49.2304C96.296 49.7974 95.8464 50.247 95.2795 50.247H89.0045C88.3789 50.247 87.8706 49.7387 87.8706 49.113V38.301C87.8706 37.6753 88.3789 37.167 89.0045 37.167H95.0644C95.6313 37.167 96.0809 37.6167 96.0809 38.1837C96.0809 38.7507 95.6313 39.2004 95.0644 39.2004H90.1383V42.661ZM90.9397 35.3487L92.5818 33.2566C92.8555 32.9047 93.3637 32.9243 93.7547 33.3153C94.1848 33.7259 94.1457 34.1951 93.8329 34.4884L91.9367 36.2285C91.6044 36.5218 91.2916 36.4631 91.0375 36.2285C90.7442 35.9157 90.7442 35.5637 90.9397 35.3487Z" fill="white"/>
</svg>
