<svg width="178" height="143" viewBox="0 0 178 143" fill="none" xmlns="http://www.w3.org/2000/svg">
<path d="M88.7274 9.84368C90.1998 9.84368 92.5288 7.09238 94.0071 7.21557C95.4854 7.33877 97.3098 10.4303 98.7647 10.6708C100.22 10.9114 102.959 8.58242 104.39 8.94614C105.822 9.30985 107.124 12.6654 108.497 13.1405C109.87 13.6157 112.979 11.7737 114.328 12.3662C115.677 12.9587 116.411 16.4726 117.707 17.1824C119.003 17.8923 122.353 16.5958 123.573 17.376C124.793 18.1562 124.952 21.7816 126.125 22.685C127.298 23.5885 130.818 22.8434 131.892 23.8583C132.965 24.8732 132.531 28.4282 133.523 29.5134C134.514 30.5987 138.122 30.4403 139.025 31.6018C139.929 32.7634 138.896 36.2186 139.7 37.4682C140.503 38.7177 144.082 39.1401 144.78 40.4013C145.478 41.6626 143.9 44.9301 144.487 46.2676C145.073 47.6051 148.529 48.6142 149.01 50.0338C149.491 51.4534 147.391 54.3514 147.754 55.7769C148.118 57.2024 151.35 58.7863 151.591 60.2412C151.831 61.696 149.285 64.2361 149.409 65.7027C149.532 67.1693 152.465 69.2577 152.465 70.7302C152.465 72.2026 149.532 74.291 149.409 75.7576C149.285 77.2242 151.837 79.7701 151.591 81.2191C151.344 82.6681 148.112 84.252 147.754 85.6775C147.396 87.103 149.514 90.0362 149.01 91.4265C148.505 92.8168 145.079 93.8434 144.487 95.1868C143.894 96.5302 145.484 99.7743 144.78 101.053C144.076 102.332 140.503 102.813 139.7 104.021C138.896 105.23 139.929 108.715 139.025 109.888C138.122 111.061 134.52 110.897 133.523 111.976C132.525 113.056 132.977 116.634 131.892 117.631C130.806 118.629 127.287 117.884 126.125 118.805C124.964 119.726 124.817 123.31 123.585 124.114C122.353 124.917 118.998 123.603 117.719 124.307C116.44 125.011 115.689 128.531 114.34 129.123C112.99 129.716 109.899 127.868 108.509 128.349C107.118 128.83 105.81 132.18 104.402 132.543C102.994 132.907 100.225 130.572 98.7764 130.784C97.3274 130.995 95.4795 134.122 94.0188 134.245C92.5581 134.368 90.2233 131.617 88.7391 131.617C87.255 131.617 84.9436 134.368 83.4594 134.245C81.9753 134.122 80.1508 131.03 78.7019 130.784C77.2529 130.537 74.5016 132.872 73.0761 132.543C71.6506 132.215 70.3424 128.824 68.9697 128.349C67.5969 127.874 64.4819 129.716 63.1385 129.123C61.7952 128.531 61.056 125.017 59.7595 124.307C58.4631 123.597 55.1076 124.894 53.8932 124.114C52.6789 123.333 52.5146 119.708 51.3531 118.805C50.1916 117.901 46.6601 118.646 45.5865 117.631C44.513 116.616 44.9471 113.061 43.9498 111.976C42.9526 110.891 39.333 111.043 38.4296 109.87C37.5262 108.697 38.5587 105.253 37.7491 104.004C36.9396 102.754 33.3729 102.332 32.6748 101.036C31.9767 99.7391 33.5547 96.5067 32.9622 95.1692C32.3697 93.8317 28.9203 92.8227 28.4452 91.4089C27.97 89.9951 30.0584 87.0854 29.7006 85.6599C29.3427 84.2344 26.1045 82.6564 25.8581 81.2015C25.6117 79.7467 28.1636 77.2066 28.0404 75.74C27.9172 74.2734 24.9899 72.185 24.9899 70.7126C24.9899 69.2401 27.9231 67.1517 28.0404 65.6851C28.1577 64.2185 25.6176 61.6726 25.8581 60.2236C26.0986 58.7746 29.331 57.2142 29.7006 55.7828C30.0701 54.3514 27.9407 51.43 28.4452 50.0397C28.9497 48.6493 32.3756 47.6227 32.9622 46.2735C33.5489 44.9242 31.9708 41.6919 32.6748 40.4072C33.3787 39.1225 36.9454 38.6473 37.7491 37.474C38.5528 36.3008 37.5262 32.781 38.4296 31.6077C39.333 30.4344 42.935 30.5987 43.9264 29.5193C44.9178 28.4399 44.4778 24.8614 45.5631 23.8642C46.6483 22.8669 50.1681 23.6061 51.3296 22.6909C52.4912 21.7758 52.632 18.1856 53.8698 17.4112C55.1076 16.6369 58.4514 17.9157 59.7361 17.2176C61.0208 16.5195 61.7658 12.988 63.1151 12.4014C64.4643 11.8148 67.5559 13.6568 68.9462 13.1757C70.3365 12.6947 71.6447 9.33918 73.0526 8.98133C74.4605 8.62349 77.2294 10.9524 78.6784 10.706C80.1274 10.4596 81.9987 7.33877 83.4653 7.20971C84.9319 7.08065 87.2608 9.84368 88.7274 9.84368Z" fill="#404041"/>
<path d="M110.164 122.111C138.148 110.64 151.534 78.6543 140.063 50.6701C128.591 22.6858 96.606 9.29957 68.6217 20.771C40.6375 32.2425 27.2512 64.2277 38.7227 92.212C50.1941 120.196 82.1793 133.583 110.164 122.111Z" fill="white"/>
<path d="M94.473 123.091C122.995 120.284 143.842 94.8868 141.035 66.3646C138.228 37.8424 112.831 16.9959 84.3092 19.8026C55.787 22.6093 34.9405 48.0063 37.7471 76.5285C40.5538 105.051 65.9509 125.897 94.473 123.091Z" fill="white" stroke="#ED1C24" stroke-width="1.25539" stroke-miterlimit="10"/>
<path fill-rule="evenodd" clip-rule="evenodd" d="M22.3976 89.6019C21.3299 80.8845 20.2623 76.9893 19.2239 68.272C12.5657 69.9791 6.14206 71.8387 3.05176e-05 73.9154L12.7945 80.5384L12.2078 81.7469C9.52106 87.1615 6.78735 92.6348 4.05365 98.0611C12.067 95.9082 18.7898 94.6645 27.7829 92.6113L23.8818 91.3266L23.2952 91.2093L22.9842 91.2738V91.1447L22.6381 91.0802L22.3976 89.6019Z" fill="url(#paint0_linear)"/>
<path fill-rule="evenodd" clip-rule="evenodd" d="M17.5992 90.048C38.5067 85.7656 62.6466 83.4074 88.4115 83.4015C114.176 83.3956 138.322 85.748 159.23 90.048C160.497 80.2161 161.752 74.5962 162.978 64.7642C140.686 58.8979 115.344 55.6421 88.4115 55.6362C61.4792 55.6304 36.1661 58.892 13.8565 64.7642C15.0884 74.5962 16.3379 80.2161 17.5992 90.048Z" fill="url(#paint1_linear)"/>
<path fill-rule="evenodd" clip-rule="evenodd" d="M153.399 92.0309L149.691 93.474C158.784 95.0521 165.213 96.6067 173.227 98.7537C170.493 93.3274 167.759 87.8541 165.067 82.4395L164.48 81.2252L177.269 74.6256C171.127 72.5489 164.703 70.66 158.051 68.9763C157.012 77.6819 155.945 81.5772 154.877 90.3121L154.701 91.7669L154.355 91.8373V91.9664L154.044 91.896L153.399 92.0309Z" fill="url(#paint2_linear)"/>
<path d="M54.4304 42.3434H55.2012L56.8168 49.4287L58.3374 42.3434H59.0977L57.1653 50.8965H56.4367L54.4304 42.3434ZM60.093 42.3434H62.0253C62.7926 42.3434 63.3382 42.5299 63.662 42.903C63.9858 43.2691 64.1478 43.8076 64.1478 44.5186C64.1478 45.0607 64.0598 45.5077 63.8838 45.8597C63.7078 46.2116 63.4016 46.4334 62.9651 46.5249L64.2745 50.8965H63.4931L62.2365 46.6939H60.8955V50.8965H60.093V42.3434ZM61.9831 46.1025C62.497 46.1025 62.856 45.9758 63.0601 45.7224C63.2643 45.469 63.3664 45.0677 63.3664 44.5186C63.3664 43.9625 63.2678 43.5612 63.0707 43.3149C62.8806 43.0685 62.5251 42.9453 62.0042 42.9453H60.8955V46.1025H61.9831ZM66.8374 42.3434H67.6822L69.4984 50.8965H68.7064L68.2841 48.6051H66.2461L65.8132 50.8965H65.0318L66.8374 42.3434ZM68.1785 48.0243L67.2704 43.4099L66.3622 48.0243H68.1785ZM67.735 39.7669H68.5058L67.471 41.8365H67.0697L67.735 39.7669ZM71.203 42.9664H69.5874V42.3434H73.5788V42.9664H72.0055V50.8965H71.203V42.9664ZM74.5087 42.3434H77.6026V42.9664H75.3218V46.1764H77.1802V46.7678H75.3218V50.2946H77.6237V50.8965H74.5087V42.3434ZM78.7265 42.3434H79.3073L82.0316 48.9852V42.3434H82.7285V50.8965H82.1583L79.4234 44.1807V50.8965H78.7265V42.3434ZM84.2336 42.3434H85.0361V50.8965H84.2336V42.3434ZM86.5427 42.3434H89.6366V42.9664H87.3558V46.1764H89.2142V46.7678H87.3558V50.2946H89.6577V50.8965H86.5427V42.3434ZM92.9157 42.3434H94.9642C95.6893 42.3434 96.2067 42.5405 96.5164 42.9347C96.8332 43.3289 96.9916 43.8886 96.9916 44.6137C96.9916 45.2754 96.8262 45.8139 96.4953 46.2292C96.1715 46.6446 95.6646 46.8522 94.9747 46.8522H93.7182V50.8965H92.9157V42.3434ZM94.7424 46.2504C95.2704 46.2504 95.6435 46.1307 95.8617 45.8913C96.087 45.645 96.1996 45.2191 96.1996 44.6137C96.1996 44.1702 96.1574 43.8323 96.0729 43.6C95.9884 43.3606 95.8441 43.1917 95.64 43.0931C95.4358 42.9946 95.1402 42.9453 94.753 42.9453H93.7182V46.2504H94.7424ZM98.0095 42.3434H101.103V42.9664H98.8226V46.1764H100.681V46.7678H98.8226V50.2946H101.125V50.8965H98.0095V42.3434ZM102.227 42.3434H102.808L105.532 48.9852V42.3434H106.229V50.8965H105.659L102.924 44.1807V50.8965H102.227V42.3434ZM102.977 39.8936H103.6L104.223 41.1607L104.846 39.8936H105.469L104.561 41.657H103.875L102.977 39.8936ZM109.054 42.3434H109.899L111.715 50.8965H110.923L110.501 48.6051H108.463L108.03 50.8965H107.249L109.054 42.3434ZM110.395 48.0243L109.487 43.4099L108.579 48.0243H110.395ZM112.355 50.2946L115.216 42.9453H112.587V42.3434H116.082V42.7658L113.147 50.2946H116.082V50.8965H112.355V50.2946ZM117.067 42.3434H117.869V50.8965H117.067V42.3434ZM117.932 39.7669H118.703L117.668 41.8365H117.267L117.932 39.7669Z" fill="#404041"/>
<path d="M54.4304 42.3434V42.1967H54.2454L54.2876 42.3769L54.4304 42.3434ZM55.2012 42.3434L55.3442 42.3108L55.3182 42.1967H55.2012V42.3434ZM56.8168 49.4287L56.6738 49.4613L56.8212 50.1075L56.9602 49.4595L56.8168 49.4287ZM58.3374 42.3434V42.1967H58.2189L58.194 42.3126L58.3374 42.3434ZM59.0977 42.3434L59.2407 42.3757L59.2811 42.1967H59.0977V42.3434ZM57.1653 50.8965V51.0431H57.2825L57.3083 50.9288L57.1653 50.8965ZM56.4367 50.8965L56.2939 50.93L56.3205 51.0431H56.4367V50.8965ZM54.4304 42.4901H55.2012V42.1967H54.4304V42.4901ZM55.0583 42.376L56.6738 49.4613L56.9598 49.3961L55.3442 42.3108L55.0583 42.376ZM56.9602 49.4595L58.4808 42.3742L58.194 42.3126L56.6734 49.398L56.9602 49.4595ZM58.3374 42.4901H59.0977V42.1967H58.3374V42.4901ZM58.9546 42.3111L57.0222 50.8642L57.3083 50.9288L59.2407 42.3757L58.9546 42.3111ZM57.1653 50.7498H56.4367V51.0431H57.1653V50.7498ZM56.5795 50.863L54.5732 42.3099L54.2876 42.3769L56.2939 50.93L56.5795 50.863ZM60.093 42.3434V42.1967H59.9463V42.3434H60.093ZM63.662 42.903L63.5513 42.9992L63.5522 43.0002L63.662 42.903ZM63.8838 45.8597L63.7526 45.7941L63.8838 45.8597ZM62.9651 46.5249L62.935 46.3814L62.7788 46.4141L62.8246 46.567L62.9651 46.5249ZM64.2745 50.8965V51.0431H64.4715L64.415 50.8544L64.2745 50.8965ZM63.4931 50.8965L63.3526 50.9385L63.3838 51.0431H63.4931V50.8965ZM62.2365 46.6939L62.377 46.6518L62.3457 46.5472H62.2365V46.6939ZM60.8955 46.6939V46.5472H60.7488V46.6939H60.8955ZM60.8955 50.8965V51.0431H61.0421V50.8965H60.8955ZM60.093 50.8965H59.9463V51.0431H60.093V50.8965ZM63.0601 45.7224L63.1743 45.8144V45.8144L63.0601 45.7224ZM63.0707 43.3149L62.9546 43.4045L62.9562 43.4065L63.0707 43.3149ZM60.8955 42.9453V42.7986H60.7488V42.9453H60.8955ZM60.8955 46.1025H60.7488V46.2492H60.8955V46.1025ZM60.093 42.4901H62.0253V42.1967H60.093V42.4901ZM62.0253 42.4901C62.7736 42.4901 63.2677 42.6724 63.5513 42.9992L63.7728 42.8069C63.4087 42.3875 62.8117 42.1967 62.0253 42.1967V42.4901ZM63.5522 43.0002C63.8435 43.3295 64.0011 43.8274 64.0011 44.5186H64.2944C64.2944 43.7878 64.1282 43.2087 63.7719 42.8059L63.5522 43.0002ZM64.0011 44.5186C64.0011 45.046 63.9153 45.4687 63.7526 45.7941L64.0149 45.9253C64.2042 45.5467 64.2944 45.0753 64.2944 44.5186H64.0011ZM63.7526 45.7941C63.5995 46.1003 63.3342 46.2977 62.935 46.3814L62.9952 46.6684C63.4689 46.5691 63.8161 46.323 64.0149 45.9253L63.7526 45.7941ZM62.8246 46.567L64.134 50.9386L64.415 50.8544L63.1056 46.4828L62.8246 46.567ZM64.2745 50.7498H63.4931V51.0431H64.2745V50.7498ZM63.6336 50.8545L62.377 46.6518L62.096 46.7359L63.3526 50.9385L63.6336 50.8545ZM62.2365 46.5472H60.8955V46.8405H62.2365V46.5472ZM60.7488 46.6939V50.8965H61.0421V46.6939H60.7488ZM60.8955 50.7498H60.093V51.0431H60.8955V50.7498ZM60.2396 50.8965V42.3434H59.9463V50.8965H60.2396ZM61.9831 46.2492C62.5156 46.2492 62.9295 46.1184 63.1743 45.8144L62.9459 45.6304C62.7825 45.8332 62.4783 45.9559 61.9831 45.9559V46.2492ZM63.1743 45.8144C63.4097 45.5223 63.513 45.0802 63.513 44.5186H63.2197C63.2197 45.0552 63.1189 45.4157 62.9459 45.6304L63.1743 45.8144ZM63.513 44.5186C63.513 43.9519 63.4139 43.5091 63.1852 43.2232L62.9562 43.4065C63.1217 43.6134 63.2197 43.9731 63.2197 44.5186H63.513ZM63.1868 43.2253C62.9547 42.9243 62.5404 42.7986 62.0042 42.7986V43.0919C62.5098 43.0919 62.8066 43.2126 62.9546 43.4044L63.1868 43.2253ZM62.0042 42.7986H60.8955V43.0919H62.0042V42.7986ZM60.7488 42.9453V46.1025H61.0421V42.9453H60.7488ZM60.8955 46.2492H61.9831V45.9559H60.8955V46.2492ZM66.8374 42.3434V42.1967H66.7185L66.6939 42.3131L66.8374 42.3434ZM67.6822 42.3434L67.8256 42.3129L67.801 42.1967H67.6822V42.3434ZM69.4984 50.8965V51.0431H69.6794L69.6418 50.866L69.4984 50.8965ZM68.7064 50.8965L68.5622 50.9231L68.5843 51.0431H68.7064V50.8965ZM68.2841 48.6051L68.4283 48.5785L68.4061 48.4584H68.2841V48.6051ZM66.2461 48.6051V48.4584H66.1246L66.102 48.5779L66.2461 48.6051ZM65.8132 50.8965V51.0431H65.9347L65.9573 50.9237L65.8132 50.8965ZM65.0318 50.8965L64.8883 50.8662L64.8509 51.0431H65.0318V50.8965ZM68.1785 48.0243V48.171H68.3568L68.3224 47.996L68.1785 48.0243ZM67.2704 43.4099L67.4143 43.3816L67.2704 42.6504L67.1265 43.3816L67.2704 43.4099ZM66.3622 48.0243L66.2184 47.996L66.1839 48.171H66.3622V48.0243ZM67.735 39.7669V39.6203H67.6281L67.5953 39.722L67.735 39.7669ZM68.5058 39.7669L68.637 39.8325L68.7431 39.6203H68.5058V39.7669ZM67.471 41.8365V41.9832H67.5616L67.6022 41.9021L67.471 41.8365ZM67.0697 41.8365L66.9301 41.7917L66.8685 41.9832H67.0697V41.8365ZM66.8374 42.4901H67.6822V42.1967H66.8374V42.4901ZM67.5387 42.3739L69.3549 50.9269L69.6418 50.866L67.8256 42.3129L67.5387 42.3739ZM69.4984 50.7498H68.7064V51.0431H69.4984V50.7498ZM68.8507 50.8699L68.4283 48.5785L68.1398 48.6317L68.5622 50.9231L68.8507 50.8699ZM68.2841 48.4584H66.2461V48.7518H68.2841V48.4584ZM66.102 48.5779L65.6691 50.8693L65.9573 50.9237L66.3902 48.6323L66.102 48.5779ZM65.8132 50.7498H65.0318V51.0431H65.8132V50.7498ZM65.1753 50.9268L66.9809 42.3737L66.6939 42.3131L64.8883 50.8662L65.1753 50.9268ZM68.3224 47.996L67.4143 43.3816L67.1265 43.4382L68.0346 48.0527L68.3224 47.996ZM67.1265 43.3816L66.2184 47.996L66.5061 48.0527L67.4143 43.4382L67.1265 43.3816ZM66.3622 48.171H68.1785V47.8777H66.3622V48.171ZM67.735 39.9136H68.5058V39.6203H67.735V39.9136ZM68.3746 39.7013L67.3398 41.771L67.6022 41.9021L68.637 39.8325L68.3746 39.7013ZM67.471 41.6899H67.0697V41.9832H67.471V41.6899ZM67.2093 41.8814L67.8746 39.8118L67.5953 39.722L66.9301 41.7917L67.2093 41.8814ZM71.203 42.9664H71.3496V42.8197H71.203V42.9664ZM69.5874 42.9664H69.4407V43.1131H69.5874V42.9664ZM69.5874 42.3434V42.1967H69.4407V42.3434H69.5874ZM73.5788 42.3434H73.7255V42.1967H73.5788V42.3434ZM73.5788 42.9664V43.1131H73.7255V42.9664H73.5788ZM72.0055 42.9664V42.8197H71.8588V42.9664H72.0055ZM72.0055 50.8965V51.0431H72.1521V50.8965H72.0055ZM71.203 50.8965H71.0563V51.0431H71.203V50.8965ZM71.203 42.8197H69.5874V43.1131H71.203V42.8197ZM69.7341 42.9664V42.3434H69.4407V42.9664H69.7341ZM69.5874 42.4901H73.5788V42.1967H69.5874V42.4901ZM73.4322 42.3434V42.9664H73.7255V42.3434H73.4322ZM73.5788 42.8197H72.0055V43.1131H73.5788V42.8197ZM71.8588 42.9664V50.8965H72.1521V42.9664H71.8588ZM72.0055 50.7498H71.203V51.0431H72.0055V50.7498ZM71.3496 50.8965V42.9664H71.0563V50.8965H71.3496ZM74.5087 42.3434V42.1967H74.3621V42.3434H74.5087ZM77.6026 42.3434H77.7493V42.1967H77.6026V42.3434ZM77.6026 42.9664V43.1131H77.7493V42.9664H77.6026ZM75.3218 42.9664V42.8197H75.1751V42.9664H75.3218ZM75.3218 46.1764H75.1751V46.3231H75.3218V46.1764ZM77.1802 46.1764H77.3269V46.0298H77.1802V46.1764ZM77.1802 46.7678V46.9144H77.3269V46.7678H77.1802ZM75.3218 46.7678V46.6211H75.1751V46.7678H75.3218ZM75.3218 50.2946H75.1751V50.4413H75.3218V50.2946ZM77.6237 50.2946H77.7704V50.1479H77.6237V50.2946ZM77.6237 50.8965V51.0431H77.7704V50.8965H77.6237ZM74.5087 50.8965H74.3621V51.0431H74.5087V50.8965ZM74.5087 42.4901H77.6026V42.1967H74.5087V42.4901ZM77.456 42.3434V42.9664H77.7493V42.3434H77.456ZM77.6026 42.8197H75.3218V43.1131H77.6026V42.8197ZM75.1751 42.9664V46.1764H75.4684V42.9664H75.1751ZM75.3218 46.3231H77.1802V46.0298H75.3218V46.3231ZM77.0336 46.1764V46.7678H77.3269V46.1764H77.0336ZM77.1802 46.6211H75.3218V46.9144H77.1802V46.6211ZM75.1751 46.7678V50.2946H75.4684V46.7678H75.1751ZM75.3218 50.4413H77.6237V50.1479H75.3218V50.4413ZM77.4771 50.2946V50.8965H77.7704V50.2946H77.4771ZM77.6237 50.7498H74.5087V51.0431H77.6237V50.7498ZM74.6554 50.8965V42.3434H74.3621V50.8965H74.6554ZM78.7265 42.3434V42.1967H78.5799V42.3434H78.7265ZM79.3073 42.3434L79.443 42.2877L79.4056 42.1967H79.3073V42.3434ZM82.0316 48.9852L81.8959 49.0409L82.1783 49.7292V48.9852H82.0316ZM82.0316 42.3434V42.1967H81.8849V42.3434H82.0316ZM82.7285 42.3434H82.8752V42.1967H82.7285V42.3434ZM82.7285 50.8965V51.0431H82.8752V50.8965H82.7285ZM82.1583 50.8965L82.0225 50.9518L82.0597 51.0431H82.1583V50.8965ZM79.4234 44.1807L79.5593 44.1254L79.2768 43.4317V44.1807H79.4234ZM79.4234 50.8965V51.0431H79.5701V50.8965H79.4234ZM78.7265 50.8965H78.5799V51.0431H78.7265V50.8965ZM78.7265 42.4901H79.3073V42.1967H78.7265V42.4901ZM79.1716 42.3991L81.8959 49.0409L82.1673 48.9296L79.443 42.2877L79.1716 42.3991ZM82.1783 48.9852V42.3434H81.8849V48.9852H82.1783ZM82.0316 42.4901H82.7285V42.1967H82.0316V42.4901ZM82.5819 42.3434V50.8965H82.8752V42.3434H82.5819ZM82.7285 50.7498H82.1583V51.0431H82.7285V50.7498ZM82.2941 50.8412L79.5593 44.1254L79.2876 44.236L82.0225 50.9518L82.2941 50.8412ZM79.2768 44.1807V50.8965H79.5701V44.1807H79.2768ZM79.4234 50.7498H78.7265V51.0431H79.4234V50.7498ZM78.8732 50.8965V42.3434H78.5799V50.8965H78.8732ZM84.2336 42.3434V42.1967H84.0869V42.3434H84.2336ZM85.0361 42.3434H85.1827V42.1967H85.0361V42.3434ZM85.0361 50.8965V51.0431H85.1827V50.8965H85.0361ZM84.2336 50.8965H84.0869V51.0431H84.2336V50.8965ZM84.2336 42.4901H85.0361V42.1967H84.2336V42.4901ZM84.8894 42.3434V50.8965H85.1827V42.3434H84.8894ZM85.0361 50.7498H84.2336V51.0431H85.0361V50.7498ZM84.3802 50.8965V42.3434H84.0869V50.8965H84.3802ZM86.5427 42.3434V42.1967H86.396V42.3434H86.5427ZM89.6366 42.3434H89.7832V42.1967H89.6366V42.3434ZM89.6366 42.9664V43.1131H89.7832V42.9664H89.6366ZM87.3558 42.9664V42.8197H87.2091V42.9664H87.3558ZM87.3558 46.1764H87.2091V46.3231H87.3558V46.1764ZM89.2142 46.1764H89.3609V46.0298H89.2142V46.1764ZM89.2142 46.7678V46.9144H89.3609V46.7678H89.2142ZM87.3558 46.7678V46.6211H87.2091V46.7678H87.3558ZM87.3558 50.2946H87.2091V50.4413H87.3558V50.2946ZM89.6577 50.2946H89.8044V50.1479H89.6577V50.2946ZM89.6577 50.8965V51.0431H89.8044V50.8965H89.6577ZM86.5427 50.8965H86.396V51.0431H86.5427V50.8965ZM86.5427 42.4901H89.6366V42.1967H86.5427V42.4901ZM89.4899 42.3434V42.9664H89.7832V42.3434H89.4899ZM89.6366 42.8197H87.3558V43.1131H89.6366V42.8197ZM87.2091 42.9664V46.1764H87.5024V42.9664H87.2091ZM87.3558 46.3231H89.2142V46.0298H87.3558V46.3231ZM89.0675 46.1764V46.7678H89.3609V46.1764H89.0675ZM89.2142 46.6211H87.3558V46.9144H89.2142V46.6211ZM87.2091 46.7678V50.2946H87.5024V46.7678H87.2091ZM87.3558 50.4413H89.6577V50.1479H87.3558V50.4413ZM89.511 50.2946V50.8965H89.8044V50.2946H89.511ZM89.6577 50.7498H86.5427V51.0431H89.6577V50.7498ZM86.6893 50.8965V42.3434H86.396V50.8965H86.6893ZM92.9157 42.3434V42.1967H92.769V42.3434H92.9157ZM96.5164 42.9347L96.4011 43.0253L96.4021 43.0266L96.5164 42.9347ZM96.4953 46.2292L96.3806 46.1379L96.3796 46.1391L96.4953 46.2292ZM93.7182 46.8522V46.7056H93.5715V46.8522H93.7182ZM93.7182 50.8965V51.0431H93.8648V50.8965H93.7182ZM92.9157 50.8965H92.769V51.0431H92.9157V50.8965ZM95.8617 45.8913L95.7535 45.7924L95.7534 45.7925L95.8617 45.8913ZM96.0729 43.6L95.9346 43.6488L95.9351 43.6501L96.0729 43.6ZM95.64 43.0931L95.7037 42.961L95.64 43.0931ZM93.7182 42.9453V42.7986H93.5715V42.9453H93.7182ZM93.7182 46.2504H93.5715V46.397H93.7182V46.2504ZM92.9157 42.4901H94.9642V42.1967H92.9157V42.4901ZM94.9642 42.4901C95.6652 42.4901 96.1299 42.6802 96.4011 43.0253L96.6317 42.8441C96.2834 42.4008 95.7133 42.1967 94.9642 42.1967V42.4901ZM96.4021 43.0266C96.6905 43.3855 96.8449 43.9079 96.8449 44.6137H97.1382C97.1382 43.8693 96.9758 43.2723 96.6307 42.8429L96.4021 43.0266ZM96.8449 44.6137C96.8449 45.2505 96.6861 45.7544 96.3806 46.1379L96.61 46.3206C96.9662 45.8735 97.1382 45.3002 97.1382 44.6137H96.8449ZM96.3796 46.1391C96.0918 46.5083 95.6346 46.7056 94.9747 46.7056V46.9989C95.6946 46.9989 96.2512 46.7809 96.611 46.3194L96.3796 46.1391ZM94.9747 46.7056H93.7182V46.9989H94.9747V46.7056ZM93.5715 46.8522V50.8965H93.8648V46.8522H93.5715ZM93.7182 50.7498H92.9157V51.0431H93.7182V50.7498ZM93.0623 50.8965V42.3434H92.769V50.8965H93.0623ZM94.7424 46.397C95.2865 46.397 95.7108 46.2746 95.9701 45.9902L95.7534 45.7925C95.5763 45.9868 95.2543 46.1037 94.7424 46.1037V46.397ZM95.97 45.9903C96.2335 45.7021 96.3463 45.2289 96.3463 44.6137H96.053C96.053 45.2092 95.9405 45.5878 95.7535 45.7924L95.97 45.9903ZM96.3463 44.6137C96.3463 44.1644 96.304 43.8062 96.2107 43.5498L95.9351 43.6501C96.0108 43.8583 96.053 44.1759 96.053 44.6137H96.3463ZM96.2112 43.5512C96.1155 43.2801 95.9471 43.0785 95.7037 42.961L95.5762 43.2252C95.7412 43.3048 95.8613 43.4412 95.9346 43.6488L96.2112 43.5512ZM95.7037 42.961C95.4703 42.8484 95.1487 42.7986 94.753 42.7986V43.0919C95.1316 43.0919 95.4013 43.1408 95.5762 43.2252L95.7037 42.961ZM94.753 42.7986H93.7182V43.0919H94.753V42.7986ZM93.5715 42.9453V46.2504H93.8648V42.9453H93.5715ZM93.7182 46.397H94.7424V46.1037H93.7182V46.397ZM98.0095 42.3434V42.1967H97.8628V42.3434H98.0095ZM101.103 42.3434H101.25V42.1967H101.103V42.3434ZM101.103 42.9664V43.1131H101.25V42.9664H101.103ZM98.8226 42.9664V42.8197H98.6759V42.9664H98.8226ZM98.8226 46.1764H98.6759V46.3231H98.8226V46.1764ZM100.681 46.1764H100.828V46.0298H100.681V46.1764ZM100.681 46.7678V46.9144H100.828V46.7678H100.681ZM98.8226 46.7678V46.6211H98.6759V46.7678H98.8226ZM98.8226 50.2946H98.6759V50.4413H98.8226V50.2946ZM101.125 50.2946H101.271V50.1479H101.125V50.2946ZM101.125 50.8965V51.0431H101.271V50.8965H101.125ZM98.0095 50.8965H97.8628V51.0431H98.0095V50.8965ZM98.0095 42.4901H101.103V42.1967H98.0095V42.4901ZM100.957 42.3434V42.9664H101.25V42.3434H100.957ZM101.103 42.8197H98.8226V43.1131H101.103V42.8197ZM98.6759 42.9664V46.1764H98.9692V42.9664H98.6759ZM98.8226 46.3231H100.681V46.0298H98.8226V46.3231ZM100.534 46.1764V46.7678H100.828V46.1764H100.534ZM100.681 46.6211H98.8226V46.9144H100.681V46.6211ZM98.6759 46.7678V50.2946H98.9692V46.7678H98.6759ZM98.8226 50.4413H101.125V50.1479H98.8226V50.4413ZM100.978 50.2946V50.8965H101.271V50.2946H100.978ZM101.125 50.7498H98.0095V51.0431H101.125V50.7498ZM98.1562 50.8965V42.3434H97.8628V50.8965H98.1562ZM102.227 42.3434V42.1967H102.081V42.3434H102.227ZM102.808 42.3434L102.944 42.2877L102.906 42.1967H102.808V42.3434ZM105.532 48.9852L105.397 49.0409L105.679 49.7292V48.9852H105.532ZM105.532 42.3434V42.1967H105.386V42.3434H105.532ZM106.229 42.3434H106.376V42.1967H106.229V42.3434ZM106.229 50.8965V51.0431H106.376V50.8965H106.229ZM105.659 50.8965L105.523 50.9518L105.56 51.0431H105.659V50.8965ZM102.924 44.1807L103.06 44.1254L102.778 43.4317V44.1807H102.924ZM102.924 50.8965V51.0431H103.071V50.8965H102.924ZM102.227 50.8965H102.081V51.0431H102.227V50.8965ZM102.977 39.8936V39.747H102.738L102.846 39.9602L102.977 39.8936ZM103.6 39.8936L103.732 39.8289L103.691 39.747H103.6V39.8936ZM104.223 41.1607L104.091 41.2255L104.223 41.4931L104.355 41.2255L104.223 41.1607ZM104.846 39.8936V39.747H104.755L104.714 39.8289L104.846 39.8936ZM105.469 39.8936L105.599 39.9608L105.71 39.747H105.469V39.8936ZM104.561 41.657V41.8037H104.65L104.691 41.7242L104.561 41.657ZM103.875 41.657L103.744 41.7236L103.785 41.8037H103.875V41.657ZM102.227 42.4901H102.808V42.1967H102.227V42.4901ZM102.672 42.3991L105.397 49.0409L105.668 48.9296L102.944 42.2877L102.672 42.3991ZM105.679 48.9852V42.3434H105.386V48.9852H105.679ZM105.532 42.4901H106.229V42.1967H105.532V42.4901ZM106.083 42.3434V50.8965H106.376V42.3434H106.083ZM106.229 50.7498H105.659V51.0431H106.229V50.7498ZM105.795 50.8412L103.06 44.1254L102.788 44.236L105.523 50.9518L105.795 50.8412ZM102.778 44.1807V50.8965H103.071V44.1807H102.778ZM102.924 50.7498H102.227V51.0431H102.924V50.7498ZM102.374 50.8965V42.3434H102.081V50.8965H102.374ZM102.977 40.0403H103.6V39.747H102.977V40.0403ZM103.468 39.9583L104.091 41.2255L104.355 41.096L103.732 39.8289L103.468 39.9583ZM104.355 41.2255L104.978 39.9583L104.714 39.8289L104.091 41.096L104.355 41.2255ZM104.846 40.0403H105.469V39.747H104.846V40.0403ZM105.339 39.8265L104.431 41.5899L104.691 41.7242L105.599 39.9608L105.339 39.8265ZM104.561 41.5104H103.875V41.8037H104.561V41.5104ZM104.005 41.5905L103.108 39.8271L102.846 39.9602L103.744 41.7236L104.005 41.5905ZM109.054 42.3434V42.1967H108.935L108.911 42.3131L109.054 42.3434ZM109.899 42.3434L110.042 42.3129L110.018 42.1967H109.899V42.3434ZM111.715 50.8965V51.0431H111.896L111.859 50.866L111.715 50.8965ZM110.923 50.8965L110.779 50.9231L110.801 51.0431H110.923V50.8965ZM110.501 48.6051L110.645 48.5785L110.623 48.4584H110.501V48.6051ZM108.463 48.6051V48.4584H108.341L108.319 48.5779L108.463 48.6051ZM108.03 50.8965V51.0431H108.152L108.174 50.9237L108.03 50.8965ZM107.249 50.8965L107.105 50.8662L107.068 51.0431H107.249V50.8965ZM110.395 48.0243V48.171H110.574L110.539 47.996L110.395 48.0243ZM109.487 43.4099L109.631 43.3816L109.487 42.6504L109.343 43.3816L109.487 43.4099ZM108.579 48.0243L108.435 47.996L108.401 48.171H108.579V48.0243ZM109.054 42.4901H109.899V42.1967H109.054V42.4901ZM109.756 42.3739L111.572 50.9269L111.859 50.866L110.042 42.3129L109.756 42.3739ZM111.715 50.7498H110.923V51.0431H111.715V50.7498ZM111.067 50.8699L110.645 48.5785L110.357 48.6317L110.779 50.9231L111.067 50.8699ZM110.501 48.4584H108.463V48.7518H110.501V48.4584ZM108.319 48.5779L107.886 50.8693L108.174 50.9237L108.607 48.6323L108.319 48.5779ZM108.03 50.7498H107.249V51.0431H108.03V50.7498ZM107.392 50.9268L109.198 42.3737L108.911 42.3131L107.105 50.8662L107.392 50.9268ZM110.539 47.996L109.631 43.3816L109.343 43.4382L110.251 48.0527L110.539 47.996ZM109.343 43.3816L108.435 47.996L108.723 48.0527L109.631 43.4382L109.343 43.3816ZM108.579 48.171H110.395V47.8777H108.579V48.171ZM112.355 50.2946L112.218 50.2414L112.208 50.2671V50.2946H112.355ZM115.216 42.9453L115.353 42.9985L115.431 42.7986H115.216V42.9453ZM112.587 42.9453H112.44V43.0919H112.587V42.9453ZM112.587 42.3434V42.1967H112.44V42.3434H112.587ZM116.082 42.3434H116.229V42.1967H116.082V42.3434ZM116.082 42.7658L116.219 42.819L116.229 42.7934V42.7658H116.082ZM113.147 50.2946L113.01 50.2413L112.932 50.4413H113.147V50.2946ZM116.082 50.2946H116.229V50.1479H116.082V50.2946ZM116.082 50.8965V51.0431H116.229V50.8965H116.082ZM112.355 50.8965H112.208V51.0431H112.355V50.8965ZM112.491 50.3478L115.353 42.9985L115.08 42.8921L112.218 50.2414L112.491 50.3478ZM115.216 42.7986H112.587V43.0919H115.216V42.7986ZM112.734 42.9453V42.3434H112.44V42.9453H112.734ZM112.587 42.4901H116.082V42.1967H112.587V42.4901ZM115.936 42.3434V42.7658H116.229V42.3434H115.936ZM115.946 42.7125L113.01 50.2413L113.283 50.3479L116.219 42.819L115.946 42.7125ZM113.147 50.4413H116.082V50.1479H113.147V50.4413ZM115.936 50.2946V50.8965H116.229V50.2946H115.936ZM116.082 50.7498H112.355V51.0431H116.082V50.7498ZM112.501 50.8965V50.2946H112.208V50.8965H112.501ZM117.067 42.3434V42.1967H116.92V42.3434H117.067ZM117.869 42.3434H118.016V42.1967H117.869V42.3434ZM117.869 50.8965V51.0431H118.016V50.8965H117.869ZM117.067 50.8965H116.92V51.0431H117.067V50.8965ZM117.932 39.7669V39.6203H117.826L117.793 39.722L117.932 39.7669ZM118.703 39.7669L118.834 39.8325L118.941 39.6203H118.703V39.7669ZM117.668 41.8365V41.9832H117.759L117.8 41.9021L117.668 41.8365ZM117.267 41.8365L117.128 41.7917L117.066 41.9832H117.267V41.8365ZM117.067 42.4901H117.869V42.1967H117.067V42.4901ZM117.722 42.3434V50.8965H118.016V42.3434H117.722ZM117.869 50.7498H117.067V51.0431H117.869V50.7498ZM117.213 50.8965V42.3434H116.92V50.8965H117.213ZM117.932 39.9136H118.703V39.6203H117.932V39.9136ZM118.572 39.7013L117.537 41.771L117.8 41.9021L118.834 39.8325L118.572 39.7013ZM117.668 41.6899H117.267V41.9832H117.668V41.6899ZM117.407 41.8814L118.072 39.8118L117.793 39.722L117.128 41.7917L117.407 41.8814Z" fill="#404041"/>
<path d="M66.6058 90.7994C66.1495 90.956 65.7618 91.0342 65.4426 91.0338C65.2855 91.0337 65.207 90.9474 65.2072 90.7752L65.2075 90.4711C65.2076 90.3546 65.2305 90.2684 65.2762 90.2127C65.3219 90.152 65.436 90.0862 65.6185 90.0155C65.8618 89.9144 66.1939 89.7095 66.6148 89.4008C67.0357 89.0922 67.4466 88.6796 67.8475 88.1632C68.157 87.7632 68.3397 87.548 68.3954 87.5177C68.4512 87.4822 68.5475 87.4646 68.6843 87.4647L69.3152 87.4654L69.3037 98.4641C69.3036 98.5756 69.3896 98.6745 69.5618 98.7608C69.7087 98.8319 69.7973 98.908 69.8276 98.9891C69.863 99.0651 69.8805 99.2704 69.8802 99.6048C69.88 99.7366 69.7913 99.8024 69.6139 99.8022L66.1327 99.7985C65.9857 99.7984 65.8945 99.7755 65.8591 99.7298C65.8288 99.6842 65.8137 99.5727 65.8139 99.3953C65.8141 99.142 65.827 98.9849 65.8524 98.9241C65.8828 98.8633 65.9893 98.8052 66.1718 98.7496C66.4556 98.6638 66.5977 98.5398 66.5978 98.3776L66.6058 90.7994ZM72.211 87.6661L75.8595 87.6699C76.0166 87.6701 76.1306 87.6322 76.2017 87.5562C76.2879 87.4651 76.3513 87.412 76.3918 87.3968C76.4375 87.3766 76.5287 87.3665 76.6655 87.3667C76.8733 87.3669 77.005 87.3848 77.0607 87.4203C77.1164 87.4508 77.1442 87.5141 77.1441 87.6104C77.1441 87.6307 77.1364 87.7219 77.121 87.884L76.9825 89.5105C76.9671 89.6676 76.9392 89.7664 76.8986 89.8069C76.8631 89.8474 76.7718 89.8675 76.6249 89.8674L73.0524 89.8636L72.9207 92.2046C73.4177 91.8707 73.9727 91.7041 74.5859 91.7047C75.5892 91.7057 76.4097 92.0816 77.0474 92.8322C77.6851 93.5829 78.0034 94.5409 78.0022 95.7064C78.0008 96.9682 77.6299 97.9889 76.8892 98.7685C76.1536 99.5481 75.2386 99.9373 74.144 99.9361C73.237 99.9352 72.538 99.6482 72.047 99.075C71.5561 98.5019 71.311 97.9037 71.3116 97.2804C71.312 96.9257 71.4061 96.6167 71.5938 96.3534C71.7816 96.085 72.0503 95.951 72.4 95.9514C72.7091 95.9517 72.9547 96.0558 73.1369 96.2638C73.3191 96.4717 73.41 96.7531 73.4097 97.1078C73.4095 97.2699 73.3891 97.4397 73.3483 97.617C73.2821 97.9159 73.249 98.111 73.2489 98.2022C73.2487 98.3745 73.3144 98.5418 73.446 98.704C73.5827 98.8663 73.7878 98.9476 74.0614 98.9479C74.2996 98.9482 74.4998 98.8876 74.6621 98.7661C74.8244 98.6396 74.931 98.4624 74.9819 98.2344C75.0328 98.0064 75.0586 97.5478 75.0594 96.8587L75.0456 95.4981C75.0467 94.4593 74.9689 93.7472 74.8122 93.362C74.6555 92.9767 74.3846 92.7838 73.9995 92.7834C73.4573 92.7829 73.0769 93.1296 72.8582 93.8236C72.8074 93.9857 72.7541 94.0895 72.6983 94.135C72.6476 94.1806 72.5563 94.2058 72.4246 94.2108L72.0825 94.2256C71.9001 94.2254 71.809 94.1519 71.8091 94.0049C71.8092 93.9593 71.8118 93.8909 71.8169 93.7997L72.211 87.6661ZM82.3433 87.4943C82.992 87.4949 83.5896 87.7591 84.1364 88.2866C84.6831 88.8142 85.0928 89.5317 85.3655 90.439C85.6382 91.3413 85.7739 92.4132 85.7726 93.6547C85.7704 95.7221 85.4242 97.2876 84.7339 98.351C84.0487 99.4144 83.2146 99.9456 82.2315 99.9446C81.2991 99.9436 80.4965 99.4361 79.8236 98.4219C79.1507 97.4077 78.8153 95.8567 78.8175 93.769C78.8197 91.6914 79.1532 90.1259 79.8182 89.0726C80.4881 88.0193 81.3299 87.4932 82.3433 87.4943ZM82.8202 89.4406C82.8205 89.0808 82.7777 88.8325 82.6917 88.6956C82.6108 88.5536 82.4741 88.4825 82.2815 88.4823C81.9065 88.4819 81.7187 88.801 81.718 89.4395L81.7088 98.2414C81.7083 98.738 81.8854 98.9865 82.2401 98.9869C82.4124 98.9871 82.5493 98.9137 82.6508 98.7669C82.7573 98.62 82.8107 98.4453 82.811 98.2426L82.8202 89.4406ZM93.645 88.4942L93.6405 92.8344L94.1573 92.8349C94.2992 92.8351 94.4031 92.8048 94.4691 92.7441C94.535 92.6833 94.5858 92.5516 94.6215 92.349C94.6827 91.9892 94.7311 91.7739 94.7666 91.703C94.8072 91.6321 94.8681 91.5967 94.9491 91.5968C95.3495 91.5972 95.5749 91.6152 95.6256 91.6507C95.6813 91.6812 95.709 91.8079 95.7088 92.0309L95.7061 94.562C95.706 94.7191 95.6805 94.8229 95.6298 94.8736C95.5791 94.9191 95.422 94.9417 95.1585 94.9415C94.9862 94.9413 94.8697 94.9108 94.8089 94.8499C94.7532 94.784 94.6977 94.604 94.6423 94.31C94.5868 94.0414 94.5312 93.8767 94.4756 93.8158C94.4249 93.7549 94.3439 93.7245 94.2324 93.7243L93.6395 93.7237L93.6341 98.9608L94.0369 98.9612C94.2852 98.9615 94.455 98.8933 94.5464 98.7565C94.6428 98.6148 94.7953 98.2121 95.0037 97.5485C95.0902 97.2698 95.179 97.0875 95.2703 97.0015C95.3616 96.9154 95.5213 96.8725 95.7493 96.8728C96.0635 96.8731 96.2205 96.9746 96.2203 97.1773C96.2202 97.2381 96.21 97.3268 96.1896 97.4433L95.9065 99.1684C95.8555 99.4825 95.8123 99.6725 95.7767 99.7384C95.7463 99.7991 95.6449 99.8294 95.4726 99.8293L90.4027 99.8239C90.276 99.8238 90.195 99.7959 90.1596 99.7401C90.1242 99.6792 90.1066 99.5095 90.1069 99.2308C90.1071 99.0534 90.1984 98.9243 90.3809 98.8434C90.6598 98.7271 90.7993 98.5677 90.7995 98.365L90.8094 88.8865C90.8045 88.7902 90.6905 88.6938 90.4677 88.5973C90.3157 88.5313 90.2246 88.4678 90.1942 88.407C90.169 88.3462 90.1565 88.1992 90.1567 87.9661C90.1569 87.7685 90.1722 87.6519 90.2027 87.6165C90.2331 87.576 90.3218 87.5558 90.4688 87.556L95.3182 87.561C95.4398 87.5612 95.5285 87.5815 95.5842 87.6221C95.6399 87.6627 95.6829 87.7591 95.7131 87.9111L96.0987 89.8726C96.1189 89.9739 96.1289 90.0424 96.1289 90.0778C96.1287 90.2147 96.0071 90.2829 95.7638 90.2827C95.4902 90.2824 95.3078 90.2518 95.2167 90.1909C95.1255 90.1249 95.037 89.9652 94.9511 89.7118C94.7945 89.2555 94.658 88.9387 94.5417 88.7612C94.4304 88.5837 94.3038 88.4949 94.1619 88.4948L93.645 88.4942ZM96.9676 87.5628L100.259 87.5662C100.37 87.5663 100.441 87.5917 100.472 87.6425C100.502 87.6881 100.517 87.8351 100.517 88.0834C100.517 88.3317 100.443 88.4963 100.296 88.5772C100.184 88.6379 100.108 88.7011 100.068 88.767C100.032 88.8328 100.014 88.9595 100.014 89.147L100.005 97.6601C100.005 97.8932 100.071 98.0833 100.202 98.2304C100.334 98.3724 100.501 98.4435 100.704 98.4437C100.891 98.4439 101.051 98.363 101.183 98.201C101.315 98.039 101.381 97.8592 101.381 97.6616L101.39 89.1484C101.39 89.0015 101.375 88.9001 101.344 88.8443C101.319 88.7835 101.251 88.7099 101.139 88.6237C100.967 88.4918 100.881 88.289 100.882 88.0153C100.882 87.8025 100.905 87.6758 100.95 87.6354C101.001 87.5898 101.072 87.5671 101.163 87.5672L102.805 87.5689C102.988 87.5691 103.079 87.6604 103.079 87.8428L103.078 88.2077C103.078 88.3698 103.068 88.4737 103.047 88.5193C103.027 88.5598 102.969 88.5977 102.873 88.6331C102.634 88.7139 102.515 88.8785 102.515 89.1268L102.506 97.4195C102.505 98.2049 102.279 98.828 101.828 99.2886C101.376 99.7442 100.748 99.9716 99.9418 99.9708C99.0399 99.9698 98.351 99.7259 97.8751 99.2389C97.4044 98.7519 97.1695 98.0499 97.1704 97.1327L97.1788 89.1212C97.1791 88.9084 97.0677 88.7512 96.8449 88.6496C96.7335 88.5988 96.6651 88.5531 96.6398 88.5126C96.6196 88.4669 96.6095 88.3732 96.6097 88.2313C96.61 87.9374 96.6279 87.7524 96.6635 87.6765C96.699 87.6005 96.8004 87.5626 96.9676 87.5628ZM106.971 94.4446L106.967 98.2147C106.967 98.392 106.977 98.5111 106.997 98.572C107.022 98.6328 107.088 98.6962 107.194 98.7622C107.331 98.8485 107.399 98.993 107.399 99.1957C107.399 99.4896 107.371 99.672 107.315 99.7428C107.264 99.8087 107.168 99.8415 107.026 99.8414L103.811 99.838C103.628 99.8378 103.537 99.706 103.538 99.4425C103.538 99.1891 103.546 99.0269 103.561 98.956C103.576 98.88 103.627 98.8269 103.713 98.7965C103.992 98.6854 104.132 98.4676 104.132 98.1433L104.141 89.2425C104.142 88.9131 104.02 88.7128 103.777 88.6416C103.655 88.601 103.579 88.5604 103.549 88.5198C103.519 88.4792 103.504 88.3601 103.504 88.1625C103.504 87.7672 103.611 87.5697 103.824 87.57L108.027 87.5744C108.863 87.5752 109.608 87.8902 110.261 88.5192C110.919 89.1483 111.247 89.9923 111.246 91.0514C111.245 92.5564 110.476 93.5387 108.94 93.9982C110.343 94.3088 111.044 95.1988 111.043 96.6683L111.041 98.4774C111.041 98.6294 111.099 98.7435 111.215 98.8196C111.352 98.911 111.42 99.0504 111.42 99.2379C111.42 99.5318 111.402 99.7066 111.366 99.7623C111.331 99.818 111.237 99.8458 111.085 99.8456L109.048 99.8435C108.805 99.8432 108.605 99.7062 108.448 99.4324C108.291 99.1535 108.213 98.8114 108.213 98.406L108.217 95.3428C108.217 94.7449 107.916 94.4456 107.313 94.4449L106.971 94.4446ZM106.977 88.4398L106.972 93.5629L107.466 93.5634C107.968 93.5639 108.219 93.06 108.22 92.0516L108.223 89.604C108.223 89.1784 108.142 88.8793 107.98 88.7069C107.823 88.5293 107.575 88.4404 107.236 88.44L106.977 88.4398Z" fill="#404041"/>
<path d="M87.8837 24.3396L86.7163 27.3901L83.4605 27.5485L86.0006 29.5958L85.1441 32.7402L87.8778 30.9627L90.6056 32.746L89.755 29.5958L92.2951 27.5543L89.0393 27.3901L87.8837 24.3396Z" fill="#404041"/>
<path d="M99.9096 28.4165L97.8857 30.0591L95.5626 28.8682L96.5013 31.3027L94.6534 33.1448L97.258 33.004L98.4313 35.3329L99.1059 32.8104L101.681 32.4115L99.4931 30.9918L99.9096 28.4165Z" fill="#404041"/>
<path d="M75.8456 28.3933L76.2563 30.9686L74.0623 32.3824L76.6435 32.7872L77.3063 35.3097L78.4913 32.9866L81.096 33.1274L79.2481 31.2854L80.1867 28.8567L77.8695 30.0417L75.8456 28.3933Z" fill="#404041"/>
<path d="M88.8214 119.614L87.654 116.57L84.3982 116.411L86.9383 114.364L86.0818 111.214L88.8155 112.991L91.5434 111.208L90.6927 114.358L93.2329 116.4L89.9771 116.57L88.8214 119.614Z" fill="#404041"/>
<path d="M100.847 115.537L98.8234 113.894L96.5003 115.085L97.4389 112.651L95.5911 110.815L98.1957 110.955L99.369 108.626L100.044 111.149L102.619 111.548L100.431 112.962L100.847 115.537Z" fill="#404041"/>
<path d="M76.7834 115.566L77.194 112.985L75 111.577L77.5812 111.172L78.2441 108.644L79.4291 110.973L82.0337 110.826L80.1858 112.668L81.1244 115.103L78.8072 113.918L76.7834 115.566Z" fill="#404041"/>
<path d="M56.5921 51.917C56.9148 51.917 57.1787 52.0343 57.1787 52.181C57.1787 52.3276 56.9148 52.4391 56.5921 52.4391C56.2695 52.4391 56.0055 52.3276 56.0055 52.181C56.0055 52.0343 56.2695 51.917 56.5921 51.917Z" fill="#ED1C24"/>
<path d="M59.0219 51.917C59.3504 51.917 59.6085 52.0343 59.6085 52.181C59.6085 52.3276 59.3504 52.4391 59.0219 52.4391C58.6934 52.4391 58.4353 52.3276 58.4353 52.181C58.4353 52.0343 58.7051 51.917 59.0219 51.917Z" fill="#ED1C24"/>
<path d="M61.4558 51.917C61.7784 51.917 62.0424 52.0343 62.0424 52.181C62.0424 52.3276 61.7843 52.4391 61.4558 52.4391C61.1273 52.4391 60.8691 52.3276 60.8691 52.181C60.8691 52.0343 61.1331 51.917 61.4558 51.917Z" fill="#ED1C24"/>
<path d="M63.8847 51.917C64.2073 51.917 64.4713 52.0343 64.4713 52.181C64.4713 52.3276 64.2073 52.4391 63.8847 52.4391C63.562 52.4391 63.298 52.3276 63.298 52.181C63.298 52.0343 63.562 51.917 63.8847 51.917Z" fill="#ED1C24"/>
<path d="M66.2885 51.917C66.6112 51.917 66.8752 52.0343 66.8752 52.181C66.8752 52.3276 66.6112 52.4391 66.2885 52.4391C65.9659 52.4391 65.7019 52.3276 65.7019 52.181C65.7019 52.0343 65.9893 51.917 66.2885 51.917Z" fill="#ED1C24"/>
<path d="M68.7474 51.917C69.0701 51.917 69.3341 52.0343 69.3341 52.181C69.3341 52.3276 69.076 52.4391 68.7474 52.4391C68.4189 52.4391 68.1608 52.3276 68.1608 52.181C68.1608 52.0343 68.4248 51.917 68.7474 51.917Z" fill="#ED1C24"/>
<path d="M71.1763 51.917C71.499 51.917 71.763 52.0343 71.763 52.181C71.763 52.3276 71.499 52.4391 71.1763 52.4391C70.8537 52.4391 70.5897 52.3276 70.5897 52.181C70.5897 52.0343 70.8537 51.917 71.1763 51.917Z" fill="#ED1C24"/>
<path d="M73.604 51.917C73.9267 51.917 74.1907 52.0343 74.1907 52.181C74.1907 52.3276 73.9267 52.4391 73.604 52.4391C73.2814 52.4391 73.0174 52.3276 73.0174 52.181C73.0174 52.0343 73.2814 51.917 73.604 51.917Z" fill="#ED1C24"/>
<path d="M76.0391 51.917C76.3618 51.917 76.6257 52.0343 76.6257 52.181C76.6257 52.3276 76.3676 52.4391 76.0391 52.4391C75.7106 52.4391 75.4525 52.3276 75.4525 52.181C75.4525 52.0343 75.7165 51.917 76.0391 51.917Z" fill="#ED1C24"/>
<path d="M78.4668 51.917C78.7895 51.917 79.0535 52.0343 79.0535 52.181C79.0535 52.3276 78.7895 52.4391 78.4668 52.4391C78.1442 52.4391 77.8802 52.3276 77.8802 52.181C77.8802 52.0343 78.1442 51.917 78.4668 51.917Z" fill="#ED1C24"/>
<path d="M80.8966 51.917C81.2192 51.917 81.4832 52.0343 81.4832 52.181C81.4832 52.3276 81.2192 52.4391 80.8966 52.4391C80.574 52.4391 80.31 52.3276 80.31 52.181C80.31 52.0343 80.574 51.917 80.8966 51.917Z" fill="#ED1C24"/>
<path d="M83.3308 51.917C83.6534 51.917 83.9174 52.0343 83.9174 52.181C83.9174 52.3276 83.6593 52.4391 83.3308 52.4391C83.0023 52.4391 82.7442 52.3276 82.7442 52.181C82.7442 52.0343 83.0081 51.917 83.3308 51.917Z" fill="#ED1C24"/>
<path d="M85.7597 51.917C86.0823 51.917 86.3463 52.0343 86.3463 52.181C86.3463 52.3276 86.0823 52.4391 85.7597 52.4391C85.437 52.4391 85.173 52.3276 85.173 52.181C85.173 52.0343 85.437 51.917 85.7597 51.917Z" fill="#ED1C24"/>
<path d="M88.1894 51.917C88.5121 51.917 88.7761 52.0343 88.7761 52.181C88.7761 52.3276 88.5121 52.4391 88.1894 52.4391C87.8668 52.4391 87.6028 52.3276 87.6028 52.181C87.6028 52.0343 87.8668 51.917 88.1894 51.917Z" fill="#ED1C24"/>
<path d="M90.6225 51.917C90.9451 51.917 91.2091 52.0343 91.2091 52.181C91.2091 52.3276 90.951 52.4391 90.6225 52.4391C90.2939 52.4391 90.0358 52.3276 90.0358 52.181C90.0358 52.0343 90.2998 51.917 90.6225 51.917Z" fill="#ED1C24"/>
<path d="M93.0522 51.917C93.3749 51.917 93.6389 52.0343 93.6389 52.181C93.6389 52.3276 93.3749 52.4391 93.0522 52.4391C92.7296 52.4391 92.4656 52.3276 92.4656 52.181C92.4656 52.0343 92.7296 51.917 93.0522 51.917Z" fill="#ED1C24"/>
<path d="M95.4799 51.917C95.8026 51.917 96.0666 52.0343 96.0666 52.181C96.0666 52.3276 95.8026 52.4391 95.4799 52.4391C95.1573 52.4391 94.8933 52.3276 94.8933 52.181C94.8933 52.0343 95.1573 51.917 95.4799 51.917Z" fill="#ED1C24"/>
<path d="M97.915 51.917C98.2377 51.917 98.5016 52.0343 98.5016 52.181C98.5016 52.3276 98.2435 52.4391 97.915 52.4391C97.5865 52.4391 97.3284 52.3276 97.3284 52.181C97.3284 52.0343 97.5924 51.917 97.915 51.917Z" fill="#ED1C24"/>
<path d="M100.344 51.917C100.667 51.917 100.931 52.0343 100.931 52.181C100.931 52.3276 100.672 52.4391 100.344 52.4391C100.015 52.4391 99.7573 52.3276 99.7573 52.181C99.7573 52.0343 100.021 51.917 100.344 51.917Z" fill="#ED1C24"/>
<path d="M102.772 51.917C103.095 51.917 103.359 52.0343 103.359 52.181C103.359 52.3276 103.095 52.4391 102.772 52.4391C102.45 52.4391 102.186 52.3276 102.186 52.181C102.186 52.0343 102.45 51.917 102.772 51.917Z" fill="#ED1C24"/>
<path d="M105.201 51.917C105.529 51.917 105.787 52.0343 105.787 52.181C105.787 52.3276 105.529 52.4391 105.201 52.4391C104.872 52.4391 104.614 52.3276 104.614 52.181C104.614 52.0343 104.878 51.917 105.201 51.917Z" fill="#ED1C24"/>
<path d="M107.636 51.917C107.958 51.917 108.222 52.0343 108.222 52.181C108.222 52.3276 107.964 52.4391 107.636 52.4391C107.307 52.4391 107.049 52.3276 107.049 52.181C107.049 52.0343 107.313 51.917 107.636 51.917Z" fill="#ED1C24"/>
<path d="M110.064 51.917C110.387 51.917 110.651 52.0343 110.651 52.181C110.651 52.3276 110.387 52.4391 110.064 52.4391C109.742 52.4391 109.478 52.3276 109.478 52.181C109.478 52.0343 109.742 51.917 110.064 51.917Z" fill="#ED1C24"/>
<path d="M112.492 51.917C112.815 51.917 113.079 52.0343 113.079 52.181C113.079 52.3276 112.815 52.4391 112.492 52.4391C112.17 52.4391 111.906 52.3276 111.906 52.181C111.906 52.0343 112.17 51.917 112.492 51.917Z" fill="#ED1C24"/>
<path d="M114.927 51.917C115.25 51.917 115.514 52.0343 115.514 52.181C115.514 52.3276 115.255 52.4391 114.927 52.4391C114.598 52.4391 114.34 52.3276 114.34 52.181C114.34 52.0343 114.604 51.917 114.927 51.917Z" fill="#ED1C24"/>
<path d="M117.355 51.917C117.678 51.917 117.942 52.0343 117.942 52.181C117.942 52.3276 117.678 52.4391 117.355 52.4391C117.032 52.4391 116.768 52.3276 116.768 52.181C116.768 52.0343 117.032 51.917 117.355 51.917Z" fill="#ED1C24"/>
<path d="M119.785 51.917C120.107 51.917 120.371 52.0343 120.371 52.181C120.371 52.3276 120.107 52.4391 119.785 52.4391C119.462 52.4391 119.198 52.3276 119.198 52.181C119.198 52.0343 119.462 51.917 119.785 51.917Z" fill="#ED1C24"/>
<path d="M122.219 51.917C122.541 51.917 122.805 52.0343 122.805 52.181C122.805 52.3276 122.547 52.4391 122.219 52.4391C121.89 52.4391 121.632 52.3276 121.632 52.181C121.632 52.0343 121.896 51.917 122.219 51.917Z" fill="#ED1C24"/>
<path d="M28.1875 80.3978C28.0648 80.6845 27.8749 80.9375 27.634 81.1356C27.3931 81.3336 27.1081 81.4709 26.8031 81.5359C25.841 81.7353 24.9317 81.3364 24.087 80.3626C23.1889 79.2554 22.5837 77.9401 22.3271 76.5378C21.9459 75.057 21.9947 73.4982 22.4679 72.0442C22.9313 70.8123 23.6411 70.0907 24.5739 69.8912C25.0025 69.7962 25.4498 69.8309 25.8586 69.991C25.9449 70.0306 26.0395 70.0487 26.1343 70.0438C26.2223 70.0438 26.2751 69.9323 26.3045 69.7563C26.3087 69.6894 26.3353 69.6258 26.38 69.5758C26.4246 69.5258 26.4848 69.4923 26.5508 69.4806H26.6388L26.8618 69.4454C26.9407 69.4436 27.018 69.4679 27.0817 69.5146C27.1453 69.5613 27.1917 69.6277 27.2137 69.7035L28.1289 71.8389C28.1959 71.9826 28.2509 72.1318 28.2931 72.2847C28.3283 72.449 28.2227 72.5546 27.9763 72.6074C27.8171 72.6647 27.6428 72.6647 27.4836 72.6074C27.2646 72.4148 27.0678 72.1984 26.8969 71.9621C26.6182 71.5717 26.2842 71.224 25.9055 70.9296C25.8007 70.847 25.6797 70.7871 25.5505 70.7538C25.4212 70.7205 25.2864 70.7144 25.1547 70.736C24.5152 70.8709 24.304 71.4458 24.5152 72.4959L26.0991 79.952C26.2165 80.5034 26.4511 80.7439 26.8031 80.6677C27.1551 80.5914 27.3193 80.2746 27.202 79.7232L26.4335 76.0626C26.3807 75.8221 26.2693 75.6872 26.0933 75.652C25.9969 75.6332 25.9092 75.5835 25.8436 75.5105C25.778 75.4375 25.7379 75.345 25.7296 75.2472C25.6862 75.0978 25.6862 74.9391 25.7296 74.7896C25.7648 74.7251 25.8586 74.684 26.0111 74.6488L28.9795 74.027C29.0775 73.9884 29.1865 73.9884 29.2845 74.027C29.37 74.1186 29.4217 74.2365 29.4312 74.3614C29.468 74.4909 29.4799 74.6263 29.4664 74.7603C29.4357 74.8517 29.3704 74.9275 29.2845 74.9715C29.2096 75.0124 29.1511 75.0779 29.119 75.1571C29.0869 75.2362 29.0832 75.324 29.1085 75.4056L30.1117 80.169C30.1629 80.3461 30.1808 80.531 30.1645 80.7146C30.1645 80.7967 30.053 80.8495 29.8946 80.8847C29.791 80.9098 29.6845 80.9216 29.5779 80.9199C29.4679 80.8934 29.3643 80.8456 29.2728 80.7791C28.9483 80.564 28.5753 80.4329 28.1875 80.3978Z" fill="white"/>
<path d="M33.9485 77.4883L32.1886 77.8051L32.2238 78.468C32.2268 78.4914 32.2268 78.515 32.2238 78.5384C32.2058 78.6629 32.2058 78.7893 32.2238 78.9138C32.2511 79.082 32.3861 79.2052 32.6285 79.2834C32.7267 79.3062 32.815 79.3596 32.8808 79.4359C32.9358 79.5339 32.9716 79.6414 32.9864 79.7527C33.0021 79.8695 33.0021 79.9879 32.9864 80.1047C32.9864 80.1516 32.9395 80.181 32.8456 80.1927L31.0329 80.5388C30.9273 80.5388 30.8569 80.4391 30.8217 80.2396C30.7953 80.1253 30.7931 80.0067 30.8153 79.8915C30.8376 79.7764 30.8837 79.6671 30.9508 79.5709C31.0713 79.4261 31.1358 79.2429 31.1326 79.0546L30.9332 70.525C30.9403 70.4137 30.9403 70.302 30.9332 70.1906C30.9332 70.044 30.7807 69.9325 30.5577 69.8562C30.4521 69.8152 30.3817 69.6978 30.3465 69.5101C30.306 69.3512 30.2901 69.187 30.2996 69.0232C30.2996 68.9528 30.3876 68.9118 30.5108 68.8883L33.2034 68.4014C33.2777 68.384 33.3556 68.3911 33.4254 68.4218C33.4953 68.4525 33.5532 68.505 33.5906 68.5715C33.752 68.8816 33.8799 69.2081 33.9719 69.5453L34.1655 70.132L36.7291 77.6643C36.826 77.9872 37.0337 78.2656 37.3157 78.4504C37.3694 78.476 37.4188 78.5096 37.4624 78.5501C37.5035 78.6349 37.5294 78.7262 37.5386 78.82C37.5679 78.9691 37.5679 79.1225 37.5386 79.2717C37.5193 79.3063 37.4913 79.3354 37.4574 79.356C37.4234 79.3765 37.3847 79.3879 37.3451 79.389L34.2124 79.9756C34.1245 79.9756 34.0599 79.9111 34.0247 79.7351C33.991 79.595 33.9772 79.4508 33.9837 79.3069C34.0179 79.2146 34.0767 79.1335 34.1538 79.0722C34.218 79.02 34.2675 78.952 34.2973 78.8748C34.3271 78.7977 34.3363 78.714 34.3239 78.6322C34.2229 78.2434 34.0975 77.8614 33.9485 77.4883ZM31.9598 71.3287L32.1651 76.9779L33.7314 76.6905L31.9598 71.3287Z" fill="white"/>
<path d="M40.348 73.7515L40.9346 77.2713C40.9447 77.3825 40.9725 77.4914 41.0167 77.594C41.0683 77.6643 41.1398 77.7174 41.222 77.7465C41.2929 77.7804 41.3536 77.8324 41.3979 77.8973C41.4422 77.9622 41.4685 78.0377 41.4743 78.1161C41.5135 78.2879 41.5135 78.4664 41.4743 78.6382C41.4442 78.6787 41.4054 78.7119 41.3607 78.7352C41.316 78.7586 41.2666 78.7715 41.2162 78.7731L38.2302 79.2483C38.0601 79.2483 37.9545 79.1661 37.9193 78.9198C37.8898 78.7669 37.8722 78.6119 37.8665 78.4563C37.8691 78.4208 37.8814 78.3867 37.9021 78.3577C37.9228 78.3287 37.9511 78.306 37.9838 78.2921C38.1011 78.2302 38.194 78.1303 38.2472 78.0089C38.3005 77.8874 38.3111 77.7515 38.2772 77.6233L36.9572 69.3225C36.9103 69.0116 36.7695 68.8473 36.529 68.8121C36.4471 68.8085 36.3679 68.7821 36.3002 68.7358C36.2446 68.6369 36.2124 68.5265 36.2063 68.4132C36.1477 68.0495 36.2063 67.8266 36.4175 67.8266L40.3304 67.2047C40.7181 67.1436 41.1141 67.1609 41.495 67.2556C41.8759 67.3504 42.2339 67.5206 42.5478 67.7562C42.9055 68.0142 43.2052 68.3443 43.4275 68.7252C43.6498 69.1061 43.7898 69.5294 43.8384 69.9678C44.0613 71.364 43.4864 72.3906 42.1255 73.0476C42.7218 73.0375 43.299 73.2583 43.7363 73.6639C44.1737 74.0696 44.4372 74.6285 44.472 75.224L44.736 76.9076C44.7429 76.9706 44.7667 77.0306 44.8049 77.0812C44.8431 77.1318 44.8943 77.1711 44.953 77.1951C45.0227 77.2289 45.0826 77.2802 45.1267 77.3439C45.1709 77.4076 45.198 77.4816 45.2053 77.5588C45.2389 77.7213 45.2389 77.889 45.2053 78.0515C45.2053 78.1102 45.0997 78.1513 44.9589 78.1689L43.0641 78.4681C42.9432 78.4835 42.8205 78.464 42.7104 78.4121C42.6002 78.3601 42.5072 78.2778 42.4422 78.1747C42.2399 77.9057 42.1124 77.588 42.0727 77.2537L41.6503 74.4027C41.6492 74.2864 41.6209 74.1719 41.5676 74.0685C41.5143 73.965 41.4376 73.8755 41.3435 73.8071C41.2494 73.7387 41.1406 73.6932 41.0258 73.6744C40.911 73.6556 40.7934 73.6639 40.6823 73.6987L40.348 73.7515ZM39.468 68.1609L40.2189 72.9127L40.6823 72.8364C41.1458 72.766 41.3042 72.2498 41.1575 71.317L40.7997 69.0409C40.7797 68.739 40.6528 68.4541 40.4418 68.2372C40.3355 68.1655 40.2152 68.117 40.0889 68.0947C39.9626 68.0725 39.833 68.0771 39.7085 68.1081L39.468 68.1609Z" fill="white"/>
<path d="M48.7307 75.1593L46.9708 75.3998V76.0627C46.973 76.0842 46.973 76.1058 46.9708 76.1272C46.9537 76.2518 46.9537 76.3781 46.9708 76.5027C46.9708 76.6728 47.1292 76.8019 47.3639 76.8899C47.4611 76.9177 47.5472 76.9751 47.6103 77.0541C47.6569 77.1558 47.6847 77.2651 47.6924 77.3768C47.7143 77.4931 47.7143 77.6124 47.6924 77.7287C47.6924 77.7757 47.6279 77.7991 47.5516 77.8109L45.6802 78.0631C45.5805 78.0631 45.5101 77.9751 45.4808 77.7581C45.4598 77.6422 45.4635 77.5233 45.4919 77.409C45.5202 77.2948 45.5724 77.1878 45.645 77.0952C45.7689 76.9553 45.8413 76.7773 45.8504 76.5907L46.0322 68.0611C46.0414 67.9478 46.0414 67.834 46.0322 67.7208C46.0322 67.5741 45.8914 67.4568 45.6685 67.3688C45.5668 67.3297 45.5023 67.2124 45.4749 67.0168C45.4511 66.8535 45.4511 66.6875 45.4749 66.5241C45.4749 66.4595 45.5688 66.4185 45.692 66.4009L48.4022 66.0372C48.4775 66.0236 48.5551 66.0345 48.6237 66.0683C48.6924 66.1021 48.7484 66.157 48.7835 66.2249C48.9321 66.5417 49.0443 66.8743 49.1179 67.2163C49.1766 67.4158 49.2294 67.6152 49.288 67.8029L51.5055 75.4291C51.5844 75.7541 51.7755 76.0408 52.0452 76.2387C52.0951 76.2671 52.1405 76.3027 52.1801 76.3443C52.2205 76.4307 52.2425 76.5246 52.2446 76.62C52.2776 76.7688 52.2776 76.9229 52.2446 77.0717C52.2446 77.1304 52.1508 77.1656 52.0452 77.1832L48.895 77.6055C48.8011 77.6055 48.7366 77.5351 48.7131 77.3592C48.6957 77.215 48.6957 77.0692 48.7131 76.925C48.7527 76.8358 48.8155 76.7588 48.895 76.7021C48.9616 76.6523 49.0145 76.5863 49.0483 76.5103C49.0822 76.4343 49.0961 76.3509 49.0886 76.268C48.9902 75.892 48.8708 75.5218 48.7307 75.1593ZM47.0178 68.9117L46.965 74.5668L48.543 74.3497L47.0178 68.9117Z" fill="white"/>
<path d="M53.589 70.4252L54.1756 75.4468C54.1901 75.5524 54.2376 75.6507 54.3113 75.7276C54.3851 75.8046 54.4814 75.8562 54.5863 75.875C54.7975 75.9395 54.9089 76.0569 54.9265 76.2211C54.959 76.4149 54.9727 76.6113 54.9676 76.8077C54.9676 76.8488 54.8913 76.8723 54.7681 76.8899L52.8792 77.1069C52.8425 77.1173 52.8034 77.1141 52.7689 77.0979C52.7344 77.0817 52.7069 77.0537 52.6914 77.0189C52.6372 76.8436 52.6037 76.6624 52.5917 76.4792C52.58 76.4188 52.5894 76.3561 52.6182 76.3017C52.647 76.2473 52.6935 76.2044 52.7501 76.18C52.9789 76.0393 53.0904 75.9043 53.0728 75.7635L52.0931 67.3512C52.0815 67.1961 52.0459 67.0437 51.9875 66.8995C51.9241 66.7932 51.8239 66.7139 51.7059 66.6766C51.6075 66.6473 51.5185 66.5927 51.4478 66.5182C51.3856 66.4044 51.3495 66.2782 51.3422 66.1487C51.307 65.8143 51.3422 65.6383 51.5475 65.6207L53.5186 65.3919L56.5515 70.6716L56.0763 66.5652C56.067 66.4577 56.0231 66.3562 55.9511 66.2758C55.8792 66.1954 55.7832 66.1405 55.6774 66.1193C55.5617 66.0941 55.4581 66.0299 55.3841 65.9375C55.3161 65.7962 55.2781 65.6424 55.2726 65.4858C55.2477 65.3995 55.2477 65.308 55.2726 65.2218C55.2726 65.1866 55.3489 65.169 55.431 65.1572L57.3904 64.9343C57.5018 64.9343 57.5781 65.081 57.6133 65.3802C57.628 65.4931 57.628 65.6075 57.6133 65.7204C57.5909 65.7839 57.5474 65.8377 57.4901 65.8729C57.3767 65.924 57.2779 66.0027 57.2026 66.1017C57.1657 66.1845 57.1534 66.2762 57.1674 66.3657L58.3407 76.4734L57.1322 76.6142L53.589 70.4252Z" fill="white"/>
<path d="M62.8224 64.2186L63.192 64.1834C63.2299 64.1784 63.2683 64.1828 63.3041 64.1961C63.3399 64.2094 63.3719 64.2312 63.3973 64.2596C63.4753 64.4196 63.5231 64.5927 63.5381 64.77L63.9429 67.0461C63.9454 67.0911 63.9454 67.1361 63.9429 67.1811C63.9653 67.3023 63.9488 67.4275 63.896 67.5389C63.8527 67.5834 63.8006 67.6184 63.743 67.6417C63.6855 67.6649 63.6237 67.6759 63.5616 67.6738C63.4819 67.6894 63.3997 67.6864 63.3213 67.665C63.243 67.6437 63.1706 67.6045 63.1099 67.5506C62.9611 67.3215 62.8557 67.067 62.799 66.7998C62.5057 65.779 62.1771 65.2921 61.8134 65.3214C61.4497 65.3508 61.4028 65.7438 61.4732 66.4947L62.2534 74.514C62.3062 75.0419 62.4881 75.2942 62.799 75.2648C63.1979 75.2238 63.3856 74.7603 63.3387 73.8687C63.3165 73.679 63.3512 73.4871 63.4384 73.3172C63.5054 73.251 63.5853 73.1991 63.673 73.1648C63.7608 73.1305 63.8546 73.1145 63.9488 73.1178C64.0953 73.0856 64.2485 73.1108 64.377 73.1882C64.4847 73.2998 64.5437 73.4496 64.5413 73.6047C64.6222 74.2275 64.4605 74.8577 64.0896 75.3646C63.9205 75.5995 63.7022 75.7947 63.4499 75.9366C63.1976 76.0784 62.9174 76.1635 62.6289 76.1859C62.0609 76.2493 61.4894 76.1032 61.0215 75.7752C60.4238 75.2894 59.9595 74.6596 59.6722 73.9449C59.2054 72.8372 58.9259 71.6597 58.8451 70.4603C58.7023 69.3672 58.734 68.2584 58.9389 67.1752C59.0838 66.4511 59.3906 65.7692 59.8365 65.1806C60.0036 64.9547 60.2164 64.7664 60.4609 64.628C60.7055 64.4896 60.9764 64.404 61.2561 64.377C61.5735 64.3381 61.8949 64.404 62.1713 64.5647C62.2382 64.609 62.3145 64.6371 62.3942 64.6468C62.4529 64.6468 62.5291 64.5647 62.6171 64.4239C62.7051 64.2831 62.7696 64.2244 62.8224 64.2186Z" fill="white"/>
<path d="M64.2075 64.893V64.5176C64.2075 64.3709 64.2661 64.2888 64.4245 64.2771L67.8446 63.9955C67.9265 63.9686 68.0149 63.9686 68.0968 63.9955C68.1379 64.0248 68.1614 64.1246 68.179 64.2888C68.1982 64.4466 68.1982 64.6062 68.179 64.764C68.1646 64.7987 68.1413 64.8289 68.1114 64.8516C68.0815 64.8743 68.0461 64.8886 68.0088 64.893C67.8796 64.92 67.7661 64.9965 67.6926 65.1061C67.6191 65.2158 67.5915 65.3499 67.6158 65.4797L68.3198 74.0621C68.3331 74.1566 68.3743 74.245 68.438 74.316C68.5017 74.387 68.5851 74.4375 68.6776 74.461C68.7765 74.4929 68.8668 74.5471 68.9416 74.6194C68.9805 74.7043 69.0024 74.7959 69.0061 74.8892V75.1649C69.0061 75.3175 69.0061 75.4055 69.0061 75.4289C68.9374 75.4574 68.8635 75.4714 68.7891 75.47L65.3045 75.7574C65.1715 75.7574 65.1011 75.7105 65.0933 75.6167C65.0714 75.408 65.0714 75.1976 65.0933 74.989C65.0933 74.9068 65.1871 74.8423 65.3279 74.7895C65.5782 74.6956 65.6956 74.549 65.6799 74.3495L64.9877 65.8786C64.9835 65.7236 64.9455 65.5714 64.8762 65.4327C64.7992 65.3155 64.679 65.2333 64.5418 65.204C64.4558 65.1844 64.3768 65.1418 64.3131 65.0808C64.264 65.0271 64.2278 64.9629 64.2075 64.893Z" fill="white"/>
<path d="M72.5898 72.7714L70.8299 72.8828L70.7888 73.5457C70.7907 73.5691 70.7907 73.5927 70.7888 73.6161C70.761 73.7392 70.7491 73.8654 70.7536 73.9916C70.7536 74.1617 70.8827 74.2966 71.1173 74.4022C71.2119 74.4354 71.2924 74.4994 71.3461 74.5841C71.3879 74.6865 71.4097 74.796 71.4106 74.9067C71.4283 75.0253 71.4283 75.1459 71.4106 75.2645C71.4106 75.3056 71.3402 75.3291 71.2581 75.3349L69.3809 75.4581C69.2753 75.4581 69.2166 75.3584 69.199 75.1414C69.1864 75.0232 69.1986 74.9036 69.235 74.7905C69.2714 74.6773 69.3311 74.573 69.4102 74.4843C69.5449 74.3551 69.63 74.1829 69.6507 73.9974L70.3958 65.503C70.4068 65.3899 70.4068 65.2759 70.3958 65.1628C70.3958 65.0161 70.2784 64.8929 70.0614 64.7873C69.9617 64.7404 69.9089 64.6172 69.8971 64.4177C69.8689 64.2567 69.8689 64.0919 69.8971 63.9308C69.8971 63.8663 69.991 63.8311 70.1142 63.8252L72.8479 63.6434C72.924 63.6342 73.001 63.6505 73.0668 63.6898C73.1326 63.7291 73.1836 63.7891 73.2116 63.8604C73.3367 64.188 73.4252 64.5283 73.4756 64.8753C73.5225 65.0748 73.5636 65.2801 73.6046 65.4619L75.2883 73.2407C75.3427 73.5706 75.5134 73.8702 75.7693 74.0854C75.8172 74.1188 75.8606 74.1582 75.8984 74.2027C75.9288 74.2935 75.9447 74.3886 75.9453 74.4843C75.9765 74.6313 75.9765 74.7832 75.9453 74.9302C75.9453 74.9888 75.8456 75.0182 75.74 75.0299L72.5663 75.2352C72.4724 75.2352 72.4196 75.1472 72.4079 74.9712C72.3842 74.8295 72.3842 74.6847 72.4079 74.543C72.4514 74.4543 72.5183 74.3792 72.6015 74.3259C72.6722 74.2824 72.73 74.2209 72.7692 74.1478C72.8084 74.0746 72.8274 73.9924 72.8244 73.9094C72.7701 73.5255 72.6917 73.1454 72.5898 72.7714ZM71.3168 66.4181L70.8768 72.0557L72.4607 71.9501L71.3168 66.4181Z" fill="white"/>
<path d="M82.7962 63.4794C82.8818 63.3767 82.9584 63.2668 83.025 63.1509C83.0595 63.091 83.1091 63.0411 83.1687 63.0062C83.2284 62.9712 83.2961 62.9523 83.3652 62.9514L83.7641 62.9866C83.8303 63.0735 83.871 63.1771 83.8815 63.2858L84.3566 65.6969C84.3724 65.7724 84.3841 65.8488 84.3918 65.9256C84.3979 65.9589 84.3952 65.9933 84.3838 66.0252C84.3725 66.0571 84.353 66.0855 84.3273 66.1075C84.1987 66.1493 84.0635 66.1672 83.9284 66.1603C83.7659 66.1886 83.5987 66.1617 83.4532 66.084C83.2744 65.853 83.1283 65.5983 83.0191 65.3273C82.5615 64.3828 82.1626 63.9194 81.8458 63.9311C81.6053 63.9311 81.4939 64.1071 81.5056 64.4415C81.5173 64.7758 81.9104 65.6617 82.6789 66.8525C83.3164 67.8103 83.8924 68.8077 84.4036 69.8385C84.6843 70.5018 84.8356 71.2126 84.8494 71.9327C84.9263 72.6945 84.7172 73.4577 84.2628 74.0739C83.9991 74.4571 83.5996 74.7254 83.1452 74.8246C82.6908 74.9238 82.2158 74.8462 81.8165 74.6078C81.7266 74.5493 81.624 74.5131 81.5173 74.5022C81.4587 74.5022 81.4059 74.555 81.3765 74.643C81.3061 74.8307 81.1184 74.9246 80.8251 74.9363C80.7438 74.9485 80.6608 74.9319 80.5905 74.8894C80.5306 74.8094 80.4959 74.7134 80.4907 74.6136L80.0508 72.2378C79.9921 71.9386 79.9628 71.7744 79.9628 71.7568C79.9628 71.616 80.0801 71.5456 80.3323 71.5338C80.6784 71.5338 80.8779 71.5338 80.9483 71.6512C81.0612 71.837 81.1556 72.0335 81.2299 72.2378C81.6933 73.4111 82.1333 73.9508 82.5615 73.9332C82.6338 73.9334 82.7052 73.9171 82.7703 73.8856C82.8353 73.8541 82.8924 73.8082 82.937 73.7513C83.0335 73.6257 83.0814 73.4695 83.0719 73.3113C83.0341 72.9359 82.9096 72.5744 82.7082 72.2554C82.4735 71.8506 82.192 71.3989 81.8576 70.9061C81.2259 69.9979 80.6575 69.0473 80.1563 68.061C79.8218 67.3742 79.6359 66.6246 79.6108 65.8611C79.5472 65.1421 79.718 64.4218 80.0977 63.8079C80.2365 63.5735 80.4314 63.3774 80.6649 63.2371C80.8984 63.0968 81.1631 63.0168 81.4352 63.0042C81.9237 63.0357 82.3943 63.2 82.7962 63.4794Z" fill="white"/>
<path d="M88.5171 70.6538L88.5523 73.0414C88.5421 73.1586 88.5727 73.2758 88.639 73.3731C88.7053 73.4704 88.8031 73.5418 88.916 73.5752C89.0142 73.6041 89.0993 73.6663 89.1565 73.7512C89.2174 73.879 89.2437 74.0206 89.2328 74.1618C89.2328 74.3495 89.2328 74.4727 89.1565 74.5138C89.0641 74.5727 88.9548 74.5995 88.8456 74.5901L85.6016 74.637C85.4314 74.637 85.3434 74.4903 85.3376 74.1853C85.3249 74.038 85.3348 73.8896 85.3669 73.7453C85.3669 73.6925 85.4725 73.6397 85.6074 73.5987C85.6961 73.5781 85.7773 73.5334 85.8421 73.4696C85.876 73.3963 85.8901 73.3154 85.8831 73.2349L85.7599 64.5821C85.7599 64.3827 85.6309 64.2184 85.3728 64.0952C85.3104 64.0672 85.2574 64.022 85.22 63.9648C85.1826 63.9076 85.1623 63.8409 85.1616 63.7726V63.4323C85.1508 63.3359 85.167 63.2384 85.2085 63.1507C85.2437 63.1038 85.3258 63.0803 85.449 63.0803L89.1155 63.0276C89.5839 62.999 90.0529 63.0712 90.4911 63.2392C90.9292 63.4072 91.3263 63.667 91.6556 64.0014C92.3276 64.7724 92.6782 65.7718 92.6353 66.7937C92.6564 67.405 92.567 68.0152 92.3713 68.5947C92.2375 69.0408 91.991 69.4448 91.6556 69.7679C91.3539 70.0268 91.0134 70.2366 90.6466 70.3898C90.2607 70.5543 89.8459 70.64 89.4264 70.642L88.5171 70.6538ZM88.4233 63.8312L88.5054 69.8325H89.0099C89.1042 69.8241 89.195 69.7931 89.2747 69.742C89.3544 69.6909 89.4205 69.6213 89.4675 69.5392C89.6203 69.2492 89.6856 68.9211 89.6552 68.5947L89.6024 65.0221C89.6024 64.2243 89.3208 63.8488 88.787 63.8488L88.4233 63.8312Z" fill="white"/>
<path d="M97.0643 62.8282C97.7403 62.8245 98.391 63.0856 98.8769 63.5556C99.4439 64.1217 99.8664 64.8159 100.109 65.5795C100.454 66.661 100.607 67.7948 100.561 68.9291C100.585 70.3615 100.24 71.7759 99.5574 73.0356C99.3134 73.5396 98.9301 73.9632 98.453 74.2563C97.9758 74.5495 97.4247 74.6999 96.8648 74.6899C96.3232 74.6783 95.7958 74.5149 95.3426 74.2183C94.8894 73.9217 94.5285 73.5038 94.3012 73.0121C93.638 71.6921 93.3288 70.2226 93.4037 68.7473C93.3685 67.2472 93.7286 65.7642 94.4479 64.4473C94.6913 63.9616 95.0648 63.553 95.5267 63.2671C95.9887 62.9812 96.521 62.8293 97.0643 62.8282ZM97.6098 64.5294C97.6098 63.9428 97.428 63.6319 97.0232 63.6319C96.9418 63.6304 96.8613 63.6489 96.7887 63.6857C96.7161 63.7225 96.6536 63.7765 96.6067 63.843C96.4871 63.9996 96.4231 64.1916 96.4248 64.3886L96.3251 73.0297C96.3021 73.263 96.3601 73.497 96.4894 73.6926C96.5332 73.7611 96.5929 73.8182 96.6633 73.859C96.7337 73.8998 96.8128 73.9232 96.8941 73.9272C96.9808 73.9269 97.0658 73.904 97.1409 73.8608C97.216 73.8176 97.2785 73.7556 97.3224 73.6808C97.4384 73.5079 97.496 73.3023 97.4866 73.0942L97.6098 64.5294Z" fill="white"/>
<path d="M106.443 66.524L108.027 73.4345C108.043 73.5369 108.082 73.6343 108.141 73.7196C108.2 73.8049 108.277 73.8759 108.367 73.9273C108.428 73.9713 108.475 74.0315 108.503 74.1011C108.531 74.1706 108.539 74.2466 108.526 74.3203C108.526 74.3203 108.526 74.4905 108.485 74.7486C108.485 74.8659 108.362 74.9187 108.18 74.9128L105.329 74.8014C105.292 74.8038 105.254 74.7988 105.219 74.7868C105.184 74.7747 105.151 74.7557 105.123 74.731C105.083 74.6307 105.07 74.521 105.088 74.4142C105.088 74.4142 105.088 74.2617 105.118 74.0446C105.127 74.0017 105.149 73.9625 105.18 73.9314C105.211 73.9003 105.251 73.8785 105.294 73.8686C105.452 73.8217 105.528 73.7337 105.534 73.6105C105.539 73.5696 105.539 73.5282 105.534 73.4873L104.678 69.8385L104.414 70.3665L104.296 73.2996C104.287 73.4155 104.31 73.5317 104.363 73.6353C104.416 73.7389 104.496 73.8258 104.595 73.8862C104.683 73.939 104.724 74.0622 104.719 74.2441C104.725 74.3945 104.699 74.5446 104.642 74.6841C104.601 74.7545 104.507 74.7897 104.361 74.7838L101.363 74.6665C101.28 74.6716 101.198 74.6442 101.134 74.5902C101.083 74.4681 101.067 74.3339 101.087 74.203C101.08 74.0669 101.102 73.9308 101.152 73.8041C101.204 73.74 101.273 73.6913 101.351 73.6633C101.433 73.6411 101.506 73.5921 101.557 73.524C101.608 73.456 101.635 73.3729 101.633 73.2879L101.956 64.6996C101.964 64.6042 101.946 64.5083 101.904 64.4224C101.861 64.3365 101.796 64.264 101.715 64.2127C101.635 64.1659 101.567 64.1017 101.516 64.025C101.496 63.9322 101.496 63.8362 101.516 63.7434C101.506 63.546 101.525 63.3483 101.574 63.1568C101.598 63.1059 101.668 63.0824 101.785 63.0864L105.047 63.2154C105.2 63.2154 105.27 63.2858 105.27 63.409C105.267 63.6329 105.25 63.8563 105.217 64.0778C105.217 64.1364 105.129 64.201 105.006 64.2655C104.771 64.3769 104.648 64.5236 104.642 64.7113L104.502 68.3778L106.179 64.899C106.256 64.7654 106.306 64.6179 106.326 64.4649C106.326 64.4063 106.273 64.33 106.162 64.242C106.072 64.1823 105.997 64.1018 105.945 64.0074C105.921 63.8499 105.921 63.6897 105.945 63.5322C105.945 63.3503 106.021 63.2565 106.162 63.2623L108.062 63.3386C108.174 63.3386 108.238 63.3386 108.262 63.409C108.283 63.5313 108.283 63.6563 108.262 63.7786C108.268 63.9146 108.246 64.0504 108.197 64.1775C108.115 64.2551 108.014 64.3097 107.904 64.3359C107.818 64.3563 107.737 64.3921 107.664 64.4415C107.609 64.4933 107.565 64.555 107.534 64.6233L106.443 66.524Z" fill="white"/>
<path d="M113.296 63.4676C113.968 63.5052 114.599 63.8017 115.056 64.2948C115.59 64.8921 115.974 65.6079 116.177 66.3832C116.46 67.4817 116.547 68.6216 116.435 69.7504C116.385 71.1889 115.963 72.5897 115.209 73.8158C114.937 74.3054 114.531 74.7071 114.038 74.9732C113.545 75.2393 112.987 75.3588 112.428 75.3176C111.887 75.2765 111.369 75.0842 110.932 74.7626C110.496 74.4411 110.158 74.0032 109.958 73.499C109.369 72.1433 109.144 70.6567 109.307 69.1873C109.343 67.6855 109.776 66.22 110.563 64.9401C110.835 64.4634 111.235 64.0727 111.719 63.8124C112.202 63.5521 112.749 63.4327 113.296 63.4676ZM113.742 65.1982C113.783 64.6115 113.613 64.2889 113.226 64.2654C113.144 64.26 113.062 64.2748 112.988 64.3086C112.913 64.3424 112.848 64.394 112.798 64.459C112.668 64.6074 112.593 64.7959 112.587 64.9929L112 73.6163C111.965 73.8468 112.008 74.0823 112.123 74.2851C112.163 74.3564 112.219 74.4167 112.288 74.4607C112.356 74.5048 112.435 74.5311 112.516 74.5373C112.602 74.544 112.688 74.5273 112.766 74.4891C112.843 74.4509 112.909 74.3926 112.956 74.3203C113.077 74.161 113.147 73.9687 113.156 73.7689L113.742 65.1982Z" fill="white"/>
<path d="M117.977 64.0132L121.373 64.3242C121.466 64.3215 121.557 64.3505 121.631 64.4063C121.667 64.5109 121.667 64.6243 121.631 64.7289C121.632 64.8768 121.6 65.023 121.538 65.1572C121.473 65.2293 121.382 65.2735 121.285 65.2804C121.139 65.3097 121.051 65.3508 121.016 65.4094C120.964 65.5239 120.936 65.6476 120.933 65.7731L120.259 73.6281C120.194 74.6382 119.791 75.597 119.115 76.3501C118.751 76.7207 118.302 76.9976 117.808 77.1569C117.313 77.3163 116.788 77.3535 116.276 77.2652C116.132 77.2659 115.99 77.2359 115.859 77.1772C115.835 77.1426 115.818 77.1033 115.81 77.0619C115.802 77.0205 115.803 76.9779 115.812 76.9367V76.6669C115.813 76.5933 115.831 76.5211 115.865 76.4557C115.865 76.4264 115.959 76.4088 116.076 76.4088C116.886 76.4088 117.349 75.8221 117.461 74.5785L118.27 65.8729C118.316 65.6467 118.304 65.4126 118.235 65.1924C118.16 65.0711 118.043 64.9815 117.906 64.9401C117.831 64.9149 117.767 64.8641 117.725 64.7966C117.683 64.7291 117.667 64.6492 117.678 64.5705C117.681 64.4012 117.709 64.2333 117.76 64.0719C117.783 64.0191 117.854 64.0015 117.977 64.0132Z" fill="white"/>
<path d="M123.469 69.5745L122.882 74.5961C122.872 74.7018 122.895 74.8081 122.949 74.8997C123.003 74.9913 123.084 75.0637 123.181 75.1064C123.262 75.1404 123.331 75.1988 123.377 75.2734C123.423 75.3481 123.445 75.4353 123.44 75.5229C123.429 75.7212 123.398 75.9179 123.346 76.1096C123.346 76.1448 123.252 76.1565 123.135 76.1448L121.246 75.9277C121.152 75.9277 121.093 75.8749 121.081 75.7987C121.061 75.6174 121.061 75.4344 121.081 75.2531C121.086 75.1919 121.11 75.1338 121.15 75.0874C121.19 75.041 121.244 75.0086 121.304 74.995C121.562 74.9128 121.697 74.8014 121.715 74.6665L122.671 66.2542C122.699 66.1009 122.699 65.944 122.671 65.7907C122.636 65.6713 122.556 65.5702 122.448 65.5091C122.359 65.459 122.284 65.3861 122.231 65.298C122.202 65.1706 122.202 65.0381 122.231 64.9108C122.266 64.5823 122.372 64.4239 122.548 64.4473L124.513 64.6703L126.273 70.4955L126.736 66.3891C126.752 66.2819 126.731 66.1727 126.678 66.0784C126.625 65.984 126.543 65.9097 126.443 65.867C126.338 65.8159 126.254 65.7312 126.203 65.6265C126.17 65.4718 126.17 65.3119 126.203 65.1572C126.203 65.0164 126.244 64.9342 126.279 64.9049C126.333 64.883 126.394 64.883 126.449 64.9049L128.408 65.1278C128.52 65.1278 128.555 65.3214 128.52 65.6206C128.517 65.7335 128.493 65.8449 128.449 65.9491C128.412 66.0037 128.356 66.0415 128.291 66.0547C128.168 66.0763 128.053 66.1288 127.957 66.2072C127.899 66.2793 127.867 66.3676 127.863 66.4595L126.69 76.5671L125.54 76.4322L123.469 69.5745Z" fill="white"/>
<path d="M132.989 65.5442C133.658 65.6322 134.268 65.9747 134.691 66.5004C135.175 67.1391 135.502 67.8826 135.647 68.6709C135.842 69.7888 135.842 70.9321 135.647 72.0499C135.486 73.4796 134.958 74.8435 134.116 76.0097C133.807 76.4779 133.37 76.8478 132.858 77.0755C132.345 77.3032 131.778 77.3792 131.224 77.2944C130.683 77.2151 130.176 76.9847 129.761 76.6298C129.346 76.2748 129.039 75.8097 128.877 75.2881C128.396 73.8934 128.284 72.3976 128.554 70.9471C128.707 69.4507 129.253 68.0215 130.138 66.8054C130.447 66.3485 130.878 65.9878 131.382 65.7647C131.887 65.5416 132.444 65.4652 132.989 65.5442ZM133.306 67.3041C133.388 66.7174 133.242 66.3889 132.86 66.3361C132.779 66.3251 132.696 66.3337 132.618 66.3613C132.541 66.3888 132.471 66.4345 132.414 66.4945C132.275 66.6327 132.188 66.8153 132.168 67.0108L130.924 75.5638C130.875 75.7929 130.902 76.0318 131.001 76.2443C131.036 76.3169 131.088 76.3802 131.152 76.4291C131.216 76.478 131.291 76.5111 131.37 76.5259C131.456 76.5371 131.544 76.5257 131.624 76.4928C131.704 76.4599 131.774 76.4066 131.828 76.3382C131.959 76.1901 132.043 76.0063 132.068 75.8102L133.306 67.3041Z" fill="white"/>
<path d="M140.598 67.281C140.705 67.1979 140.806 67.1056 140.897 67.0052C140.943 66.9553 141.002 66.9178 141.066 66.8963C141.131 66.8747 141.2 66.8698 141.267 66.8821L141.654 67.0052C141.698 67.1026 141.716 67.2097 141.707 67.3162L141.666 69.7741C141.672 69.8503 141.672 69.9268 141.666 70.0029C141.666 70.0968 141.619 70.1496 141.56 70.1672C141.428 70.1942 141.293 70.1942 141.161 70.1672C140.997 70.158 140.841 70.0963 140.715 69.9912C140.587 69.7273 140.497 69.447 140.445 69.1582C140.193 68.1433 139.9 67.6036 139.571 67.5449C139.337 67.5039 139.19 67.6505 139.131 67.9791C139.073 68.3076 139.278 69.252 139.777 70.5778C140.201 71.647 140.555 72.7423 140.838 73.8571C140.977 74.5641 140.977 75.2913 140.838 75.9983C140.756 76.7588 140.397 77.4625 139.829 77.9753C139.618 78.1649 139.368 78.3053 139.096 78.3865C138.824 78.4676 138.538 78.4875 138.257 78.4446C137.91 78.3822 137.587 78.2237 137.325 77.987C137.251 77.9086 137.158 77.8518 137.055 77.8227C136.996 77.8227 136.937 77.8227 136.885 77.9283C136.832 78.0339 136.58 78.1512 136.298 78.0984C136.216 78.0952 136.139 78.0617 136.081 78.0046C136.037 77.9134 136.023 77.8109 136.04 77.7113L136.098 75.2592C136.098 74.9541 136.098 74.7898 136.098 74.7722C136.098 74.6315 136.257 74.5845 136.509 74.6315C136.761 74.6784 137.037 74.7722 137.096 74.872C137.166 75.086 137.217 75.3059 137.248 75.529C137.459 76.7433 137.776 77.3886 138.193 77.4649C138.265 77.4781 138.339 77.4756 138.41 77.4573C138.481 77.4391 138.547 77.4056 138.603 77.3593C138.721 77.2567 138.798 77.1151 138.82 76.9604C138.864 76.5853 138.817 76.2054 138.686 75.8516C138.545 75.4058 138.357 74.9072 138.14 74.3557C137.71 73.335 137.349 72.2865 137.061 71.2173C136.88 70.4756 136.854 69.7049 136.984 68.9529C137.064 68.2402 137.37 67.5719 137.858 67.0463C138.043 66.8455 138.275 66.6937 138.533 66.6047C138.791 66.5156 139.067 66.492 139.337 66.5359C139.818 66.6621 140.255 66.9201 140.598 67.281Z" fill="white"/>
<path d="M144.734 68.5658L144.417 68.5013C144.311 68.5013 144.212 68.5013 144.118 68.6538C143.932 68.996 143.787 69.3581 143.684 69.7332C143.643 69.9107 143.554 70.0733 143.425 70.2026C143.284 70.2556 143.127 70.2556 142.986 70.2026C142.847 70.1933 142.716 70.1399 142.61 70.05C142.589 70.002 142.578 69.9501 142.578 69.8975C142.578 69.845 142.589 69.793 142.61 69.745C142.61 69.657 142.645 69.5749 142.669 69.4927L143.091 67.8736C143.107 67.7395 143.17 67.6152 143.267 67.5216C143.41 67.4729 143.564 67.4729 143.707 67.5216L148.852 68.5835C148.998 68.6128 149.086 68.648 149.116 68.6949C149.144 68.8342 149.144 68.9779 149.116 69.1173L148.934 70.5897C148.934 70.7012 148.934 70.8185 148.881 70.9358C148.863 71.0472 148.821 71.1532 148.758 71.2468C148.711 71.3113 148.588 71.3289 148.406 71.2878C148.245 71.2738 148.091 71.2171 147.96 71.1236C147.901 71.0649 147.878 70.9065 147.884 70.6484C147.897 70.2978 147.883 69.9468 147.843 69.5983C147.808 69.3246 147.726 69.172 147.596 69.1408L147.385 69.0997L145.485 78.1103C145.457 78.2198 145.465 78.3349 145.506 78.44C145.547 78.545 145.619 78.6348 145.713 78.697C145.784 78.7407 145.838 78.8068 145.866 78.8847C145.895 79.0082 145.895 79.1367 145.866 79.2601C145.819 79.5007 145.766 79.6356 145.719 79.6649C145.623 79.702 145.516 79.702 145.42 79.6649L142.328 79.0314C142.205 79.0314 142.129 78.9668 142.106 78.914C142.073 78.779 142.073 78.6384 142.106 78.5034C142.158 78.2394 142.264 78.0986 142.422 78.0693C142.532 78.0616 142.638 78.0229 142.727 77.9578C142.792 77.8838 142.831 77.7914 142.839 77.6938L144.734 68.5658Z" fill="white"/>
<path d="M149.843 69.4396L149.931 69.07C149.935 69.0387 149.946 69.0088 149.963 68.9825C149.981 68.9562 150.004 68.9342 150.031 68.9183C150.058 68.9025 150.089 68.8931 150.12 68.8909C150.152 68.8887 150.183 68.8938 150.213 68.9057L153.55 69.6859C153.638 69.6951 153.72 69.7321 153.785 69.7915C153.814 69.8385 153.785 69.9382 153.785 70.1025C153.758 70.2592 153.709 70.4113 153.638 70.5542C153.614 70.5819 153.583 70.603 153.548 70.6153C153.513 70.6276 153.476 70.6308 153.439 70.6246C153.371 70.612 153.301 70.6139 153.233 70.63C153.166 70.6461 153.103 70.676 153.047 70.718C152.992 70.76 152.946 70.813 152.913 70.8736C152.879 70.9343 152.859 71.0013 152.852 71.0704L150.887 79.4534C150.87 79.5478 150.882 79.6451 150.92 79.733C150.959 79.8208 151.023 79.895 151.104 79.9461C151.19 80.0047 151.261 80.0832 151.31 80.1749C151.328 80.2659 151.328 80.3596 151.31 80.4506L151.245 80.7263C151.21 80.873 151.18 80.9551 151.145 80.9669C151.072 80.9811 150.996 80.9811 150.922 80.9669L147.52 80.169C147.391 80.169 147.338 80.0752 147.362 79.9696C147.403 79.7692 147.462 79.5729 147.538 79.383C147.572 79.3416 147.617 79.3093 147.667 79.2889C147.717 79.2685 147.771 79.2605 147.825 79.2656C148.095 79.2656 148.247 79.1483 148.294 78.9547L150.23 70.6774C150.274 70.529 150.286 70.3731 150.265 70.2198C150.226 70.087 150.138 69.9739 150.019 69.903C149.945 69.8549 149.883 69.7907 149.837 69.7153C149.812 69.6248 149.814 69.5289 149.843 69.4396Z" fill="white"/>
<defs>
<linearGradient id="paint0_linear" x1="46.0565" y1="84.1814" x2="154.29" y2="87.4079" gradientUnits="userSpaceOnUse">
<stop offset="0.01" stop-color="#DE272E"/>
<stop offset="0.18" stop-color="#D6272E"/>
<stop offset="0.45" stop-color="#C0272E"/>
<stop offset="0.46" stop-color="#BF272E"/>
<stop offset="1" stop-color="#DE272E"/>
</linearGradient>
<linearGradient id="paint1_linear" x1="11809.4" y1="3889.8" x2="38894.8" y2="7388.73" gradientUnits="userSpaceOnUse">
<stop offset="0.01" stop-color="#DE272E"/>
<stop offset="0.18" stop-color="#D6272E"/>
<stop offset="0.45" stop-color="#C0272E"/>
<stop offset="0.46" stop-color="#BF272E"/>
<stop offset="1" stop-color="#DE272E"/>
</linearGradient>
<linearGradient id="paint2_linear" x1="2320.04" y1="3779.84" x2="7408.74" y2="3920.33" gradientUnits="userSpaceOnUse">
<stop offset="0.01" stop-color="#DE272E"/>
<stop offset="0.18" stop-color="#D6272E"/>
<stop offset="0.45" stop-color="#C0272E"/>
<stop offset="0.46" stop-color="#BF272E"/>
<stop offset="1" stop-color="#DE272E"/>
</linearGradient>
</defs>
</svg>
